<?xml version="1.0" encoding="UTF-8"?>
<svg version="1.1" xmlns="http://www.w3.org/2000/svg" width="512" height="512">
<path d="M0 0 C0.83137456 -0.00297112 1.66274912 -0.00594224 2.51931685 -0.0090034 C5.31519004 -0.01770003 8.11102047 -0.01919946 10.90690613 -0.02069092 C12.90744112 -0.0253184 14.90797523 -0.03034296 16.9085083 -0.03573608 C22.35070838 -0.04886857 27.79289612 -0.05530666 33.23510957 -0.05974674 C36.63377884 -0.06267601 40.03244472 -0.06678053 43.43111229 -0.07125092 C54.06071165 -0.08492788 64.69030328 -0.09459365 75.31991082 -0.09845281 C87.59780934 -0.10293465 99.8755966 -0.12048763 112.15346128 -0.1494534 C121.63888968 -0.17105595 131.12428674 -0.18115632 140.60973948 -0.18249393 C146.27731296 -0.18354294 151.94478187 -0.18947144 157.61232948 -0.20731354 C162.94338266 -0.22376958 168.27425239 -0.22596168 173.60532188 -0.21717453 C175.5620663 -0.21640284 177.51882048 -0.22076416 179.47554016 -0.23063278 C182.14691733 -0.24331567 184.8176412 -0.23749542 187.48901367 -0.22705078 C188.26324372 -0.23510719 189.03747376 -0.24316359 189.83516532 -0.25146413 C195.45238683 -0.20010273 199.55938098 0.99833985 203.7631073 4.78887939 C204.23232605 5.35864502 204.7015448 5.92841064 205.1849823 6.51544189 C205.66451355 7.08005127 206.1440448 7.64466064 206.6381073 8.22637939 C209.54676067 12.51927142 210.18294213 16.26630264 210.16203308 21.3994751 C210.16188202 22.64038406 210.16173096 23.88129303 210.16157532 25.1598053 C210.15136373 26.5036129 210.14093176 27.84741884 210.1302948 29.19122314 C210.12656161 30.5741302 210.12371608 31.95703991 210.12171936 33.33995056 C210.11410692 36.9682453 210.09447921 40.59637826 210.0723114 44.22460938 C210.05180129 47.93155733 210.04270663 51.6385316 210.03263855 55.34552002 C210.01123085 62.61056749 209.97712405 69.87548197 209.9349823 77.14044189 C210.79418274 77.13155945 211.65338318 77.122677 212.53862 77.11352539 C220.65938417 77.03317889 228.7800137 76.97237589 236.9010849 76.93319321 C241.07564331 76.91237128 245.24987163 76.88415338 249.42424011 76.83868408 C253.45726743 76.79503224 257.48997844 76.77126426 261.52322388 76.76093292 C263.05734227 76.75357605 264.59144452 76.73920997 266.12542725 76.71752167 C282.85895132 76.49047102 282.85895132 76.49047102 289.43803406 82.51733398 C293.85545487 87.3409657 295.17718616 92.51572252 295.2134552 98.91116333 C295.23020042 100.60215904 295.23020042 100.60215904 295.24728394 102.32731628 C295.24944412 103.54939285 295.25160431 104.77146942 295.25382996 106.03057861 C295.26387558 107.32867966 295.2739212 108.6267807 295.28427124 109.96421814 C295.31150011 113.51125793 295.32669943 117.05825817 295.33969927 120.60537481 C295.35536106 124.31698979 295.38214152 128.02852436 295.4077301 131.74008179 C295.45446404 138.76283797 295.49123415 145.78560936 295.52440298 152.80844128 C295.56266248 160.80605963 295.61206258 168.80359711 295.66238713 176.80114722 C295.76562686 193.24752065 295.85491306 209.69393899 295.9349823 226.14044189 C296.89525833 225.65321152 297.85553436 225.16598114 298.84490967 224.66398621 C300.11778774 224.02181118 301.39073555 223.37977438 302.66374207 222.737854 C303.2951133 222.41704613 303.92648453 222.09623825 304.57698822 221.76570892 C316.01805616 216.00868199 330.78466682 212.36081704 343.4740448 215.83575439 C348.16421509 217.92612992 351.01187325 220.97722598 353.9349823 225.14044189 C358.37055979 238.44717436 353.89562835 255.29840404 348.1849823 267.51544189 C342.21314991 278.50066443 331.23481566 292.82274235 320.14987183 299.16117859 C317.84231093 300.64820479 316.47252651 301.84902891 314.9349823 304.14044189 C314.09659381 309.22782077 314.49732915 314.21761036 314.83732605 319.33184814 C314.91238988 320.86068171 314.98420044 322.38967805 315.05296326 323.91880798 C315.24540029 328.00547136 315.48150085 332.0885331 315.725811 336.17237854 C315.97033359 340.39119916 316.17335857 344.61198792 316.37956238 348.83282471 C316.71085151 355.52458466 317.06293163 362.21487964 317.43302917 368.90460205 C318.03491378 379.80732656 318.53099732 390.71392164 319.00068665 401.62307739 C319.11863945 404.30312718 319.24494818 406.98264379 319.37419128 409.66217041 C320.80451719 439.68151085 320.80451719 439.68151085 314.57951355 446.65997314 C310.52599492 450.43094088 306.21204229 452.09460889 300.7006073 452.17169189 C294.33914774 451.7447483 290.26935084 449.70775058 285.91989136 444.92427063 C283.68444772 441.78906793 282.6444865 439.01808057 281.48893738 435.34918213 C281.28072011 434.69582854 281.07250284 434.04247496 280.85797596 433.36932278 C280.20302807 431.29706542 279.56636119 429.21999226 278.9349823 427.14044189 C278.63365702 426.15416746 278.63365702 426.15416746 278.32624435 425.14796829 C276.87408789 420.37536824 275.46961972 415.58931139 274.07170105 410.80059814 C273.63068198 409.29738958 273.18941836 407.79425275 272.7479248 406.29118347 C271.60300142 402.3909144 270.46133611 398.4896995 269.32041931 394.58825684 C268.14904054 390.58487653 266.97448268 386.58242919 265.80021667 382.57989502 C263.50874712 374.7676378 261.22072931 366.95437535 258.9349823 359.14044189 C255.98740301 358.829084 255.98740301 358.829084 254.34440613 360.40631104 C253.78261658 360.99017578 253.22082703 361.57404053 252.64201355 362.17559814 C251.70240784 363.13744019 251.70240784 363.13744019 250.74382019 364.11871338 C250.08502869 364.80650879 249.42623718 365.4943042 248.7474823 366.20294189 C247.38997916 367.59279349 246.03062536 368.98084008 244.6693573 370.36700439 C243.69579285 371.35942139 243.69579285 371.35942139 242.70256042 372.37188721 C240.14788982 374.92796923 237.44783082 377.27537975 234.68888855 379.60528564 C232.67664748 381.36655678 230.81126244 383.23524028 228.9349823 385.14044189 C219.35152001 394.85570033 219.35152001 394.85570033 214.15763855 397.61700439 C211.4685954 400.66994267 211.65684588 401.48257416 211.8490448 405.42950439 C212.05919644 407.54432151 212.2973212 409.65650276 212.5599823 411.76544189 C212.66955261 412.80829346 212.77912292 413.85114502 212.89201355 414.92559814 C213.21826296 418.00001903 213.57526509 421.0697833 213.9349823 424.14044189 C216.45503165 447.16231211 216.45503165 447.16231211 211.9349823 453.14044189 C207.38585037 457.77747975 204.18783226 459.82766786 197.6849823 460.45294189 C191.44617031 459.9330409 186.94824066 457.53735636 182.6224823 453.01544189 C179.19708847 448.83661677 176.47418127 444.2538333 173.6849823 439.64044189 C173.20657898 438.85669189 172.72817566 438.07294189 172.23527527 437.26544189 C169.96413181 433.53563358 167.74051957 429.79740752 165.62638855 425.97637939 C157.89916256 412.72924322 145.74159541 405.99437812 132.9349823 398.14044189 C130.04189765 396.31320036 127.1678339 394.45977137 124.3099823 392.57794189 C123.7133075 392.18550293 123.11663269 391.79306396 122.50187683 391.38873291 C117.28919576 387.87134995 112.97336215 384.25558145 110.9349823 378.14044189 C110.19548609 371.60118255 110.35236536 366.22600758 114.32951355 360.80059814 C117.62255007 357.39539006 121.22957299 355.40272228 125.98991394 354.94122314 C133.93357082 354.98296321 141.79301656 355.81253561 149.6849823 356.64044189 C151.76706404 356.85663017 153.84926784 357.07128629 155.93186951 357.28240967 C157.81054224 357.47314431 159.6886989 357.66894242 161.56681824 357.86505127 C162.67831238 357.95593018 163.78980652 358.04680908 164.9349823 358.14044189 C166.00780457 358.23647705 167.08062683 358.33251221 168.18595886 358.43145752 C171.0754251 358.44926744 171.0754251 358.44926744 172.60679626 356.12225342 C173.04509766 355.46825562 173.48339905 354.81425781 173.9349823 354.14044189 C173.10161496 354.13897668 173.10161496 354.13897668 172.25141191 354.13748187 C139.31668359 354.07919835 106.3820309 354.00539289 73.44738558 353.91145561 C69.49207959 353.90018757 65.53677325 353.8890491 61.58146667 353.87799072 C60.79404286 353.87578704 60.00661904 353.87358336 59.1953339 353.87131289 C46.44875852 353.83594926 33.70218319 353.81107986 20.95557696 353.79009487 C7.87447554 353.76832538 -5.20656227 353.73526404 -18.28760958 353.69174033 C-26.35804647 353.6652434 -34.42840412 353.64753362 -42.49888235 353.64109585 C-48.68938174 353.6352138 -54.87973595 353.61361436 -61.07017517 353.58616638 C-63.60819244 353.57736995 -66.14623324 353.57366688 -68.68426514 353.57543373 C-72.14989235 353.57708463 -75.61496892 353.56040174 -79.08052063 353.53916931 C-80.58638206 353.54644068 -80.58638206 353.54644068 -82.12266493 353.55385894 C-88.93951566 353.48495382 -94.9525538 352.78843863 -100.34236145 348.20294189 C-100.89021301 347.52231689 -101.43806458 346.84169189 -102.0025177 346.14044189 C-102.56841614 345.45981689 -103.13431458 344.77919189 -103.71736145 344.07794189 C-105.82417273 341.04901901 -106.19066327 338.50637799 -106.19923878 334.92053699 C-106.20369662 334.05561534 -106.20815446 333.19069368 -106.2127474 332.29956228 C-106.21256303 331.34880258 -106.21237867 330.39804289 -106.21218872 329.41847229 C-106.21586541 328.40883256 -106.2195421 327.39919282 -106.2233302 326.35895795 C-106.23438513 322.95969817 -106.23821395 319.56046893 -106.24201965 316.16119385 C-106.24828293 313.73041181 -106.2549296 311.29963073 -106.26193237 308.86885071 C-106.28117252 301.56262363 -106.29176254 294.25639906 -106.30066016 286.95015433 C-106.30504405 283.50882885 -106.31041062 280.06750491 -106.31564903 276.62618065 C-106.33266113 265.18512065 -106.34715493 253.74406161 -106.35439777 242.30299091 C-106.35630764 239.33417573 -106.35822798 236.36536056 -106.36018372 233.39654541 C-106.36090933 232.2897292 -106.36090933 232.2897292 -106.3616496 231.16055306 C-106.36994852 219.20949294 -106.39528317 207.25853295 -106.42776439 195.30751655 C-106.46084604 183.03544626 -106.47884755 170.76342684 -106.48204201 158.49131173 C-106.48420614 151.6018698 -106.49294032 144.71257388 -106.51850319 137.82317543 C-106.54249815 131.34139291 -106.54602889 124.85980179 -106.53574181 118.37798119 C-106.53524562 115.99958295 -106.54159035 113.6211719 -106.55529785 111.24281311 C-106.57297367 107.99400298 -106.56593099 104.74614034 -106.55276489 101.49732971 C-106.56373414 100.55772363 -106.57470338 99.61811754 -106.58600503 98.65003854 C-106.51990035 91.88648941 -105.11564681 86.23043396 -100.24861145 81.30059814 C-99.38429504 80.7572583 -99.38429504 80.7572583 -98.5025177 80.20294189 C-97.92372864 79.82266846 -97.34493958 79.44239502 -96.74861145 79.05059814 C-92.86153552 76.94923227 -89.54552246 77.01923746 -85.2068634 77.0269165 C-84.51392181 77.02677048 -83.82098022 77.02662445 -83.10704041 77.026474 C-80.81826133 77.02717027 -78.5295638 77.03494929 -76.24079895 77.04278564 C-74.65324956 77.04465084 -73.06569959 77.04607426 -71.47814941 77.04707336 C-67.3007905 77.05089055 -63.12346639 77.06071404 -58.94612122 77.07177734 C-54.68302379 77.08200862 -50.41992074 77.08657467 -46.15681458 77.09161377 C-37.79286632 77.10233701 -29.42894634 77.11940386 -21.0650177 77.14044189 C-21.07612076 76.35640991 -21.08722382 75.57237793 -21.09866333 74.7645874 C-21.1991434 67.35019806 -21.27512244 59.93614211 -21.32407856 52.52124786 C-21.35009442 48.70977058 -21.38534281 44.89885918 -21.44221497 41.08770752 C-21.49682524 37.40478512 -21.5264984 33.72240454 -21.53940392 30.03910828 C-21.54859227 28.63892597 -21.56653494 27.23877095 -21.59366798 25.83882141 C-21.74460538 17.72310011 -21.71517309 11.3647651 -16.0650177 5.14044189 C-10.90434046 0.34838446 -6.80231211 -0.00754759 0 0 Z M-6.0650177 17.14044189 C-6.78988326 19.84964587 -6.78988326 19.84964587 -6.63264465 22.98883057 C-6.632267 24.18984909 -6.63188934 25.39086761 -6.63150024 26.62828064 C-6.60569382 27.92522354 -6.57988739 29.22216644 -6.55329895 30.55841064 C-6.54397166 31.89932437 -6.53685514 33.24025515 -6.53186035 34.58119202 C-6.51278301 38.10799327 -6.46367872 41.6337624 -6.40834045 45.16015625 C-6.35716214 48.75956254 -6.33434952 52.35913589 -6.30915833 55.95880127 C-6.25555832 63.01981035 -6.16761818 70.07995012 -6.0650177 77.14044189 C-1.7750177 77.14044189 2.5149823 77.14044189 6.9349823 77.14044189 C6.95480164 75.8587915 6.97462097 74.57714111 6.99504089 73.25665283 C7.07112733 68.50043122 7.15984028 63.74451432 7.25236511 58.98858643 C7.29064225 56.9303794 7.32549734 54.87210577 7.3568573 52.81378174 C7.40253508 49.85471801 7.46052532 46.89611232 7.5209198 43.93731689 C7.53824661 42.55742584 7.53824661 42.55742584 7.55592346 41.1496582 C7.57579315 40.28906799 7.59566284 39.42847778 7.61613464 38.54180908 C7.62945831 37.78680115 7.64278198 37.03179321 7.6565094 36.25390625 C7.97552621 33.83273476 8.65387749 32.2125832 9.9349823 30.14044189 C12.80158877 28.70713866 15.2519656 29.00782567 18.45730591 29 C19.13476775 28.99702888 19.8122296 28.99405776 20.51022059 28.9909966 C22.79106171 28.98229204 25.07185047 28.98079989 27.35270691 28.97930908 C28.98358269 28.97468221 30.61445739 28.96965773 32.24533081 28.96426392 C36.68328839 28.95112679 41.12123083 28.94469261 45.55920482 28.94025326 C48.32951675 28.93732515 51.09982451 28.93322088 53.87013435 28.92874908 C62.53110896 28.91507181 71.19207409 28.90540581 79.85305876 28.90154719 C89.86366788 28.89706321 99.87414068 28.87950055 109.88470834 28.8505466 C117.61467074 28.8289619 125.3445947 28.81884466 133.07458693 28.81750607 C137.69524435 28.8164559 142.31577366 28.81050297 146.93639946 28.79268646 C151.2808702 28.77626078 155.62511577 28.7740233 159.9696064 28.78282547 C161.56639838 28.78359876 163.16320219 28.77921486 164.75996399 28.76936722 C166.93547257 28.75673434 169.11017312 28.76247626 171.28567505 28.77294922 C172.50445312 28.77148266 173.72323118 28.7700161 174.97894192 28.7685051 C177.9349823 29.14044189 177.9349823 29.14044189 179.82564354 30.53408909 C181.28815832 32.65185041 181.33143392 34.04708763 181.36735535 36.61187744 C181.38714951 37.51258469 181.40694366 38.41329193 181.42733765 39.34129333 C181.43692253 40.79454765 181.43692253 40.79454765 181.44670105 42.27716064 C181.46465225 43.27173782 181.48260345 44.266315 181.50109863 45.29103088 C181.55531246 48.46995799 181.58913313 51.64873402 181.6224823 54.82794189 C181.65564556 56.98225985 181.69013429 59.13655783 181.72599792 61.29083252 C181.81104545 66.57392681 181.87780398 71.85697543 181.9349823 77.14044189 C186.2249823 77.14044189 190.5149823 77.14044189 194.9349823 77.14044189 C195.04791006 69.36927453 195.13965477 61.59855475 195.19404316 53.82679272 C195.22014624 50.21806056 195.25555452 46.60991842 195.31217957 43.00152588 C195.36647817 39.51962293 195.39639748 36.03828765 195.40936852 32.55599403 C195.42311408 30.57989891 195.46215155 28.60403248 195.50146484 26.62828064 C195.5018425 25.42726212 195.50222015 24.22624359 195.50260925 22.98883057 C195.51926384 21.39998299 195.51926384 21.39998299 195.53625488 19.77903748 C195.18981097 16.99582668 195.18981097 16.99582668 192.88607311 15.4993391 C189.23282148 13.8171159 186.05700718 13.72312543 182.11625671 13.75949097 C181.33555392 13.75481099 180.55485112 13.75013102 179.75049067 13.74530923 C177.13798626 13.73335598 174.5260061 13.74281763 171.91349792 13.7522583 C170.03912042 13.74819274 168.16474532 13.74285095 166.29037476 13.73632812 C161.20159471 13.72264685 156.11299704 13.72795656 151.02421379 13.73746538 C145.70007204 13.74505774 140.37594595 13.73801754 135.05180359 13.73330688 C126.11065363 13.72784811 117.169578 13.73504418 108.22843933 13.74932861 C97.88952824 13.76565534 87.55079463 13.76036692 77.21188784 13.7438494 C68.33703228 13.73023804 59.46223016 13.72831316 50.58736753 13.7361654 C45.28595794 13.74084384 39.98463178 13.74146206 34.68322754 13.73155594 C29.6993103 13.72289368 24.715622 13.72889471 19.73172951 13.74623871 C17.90196424 13.7502075 16.07217973 13.7490628 14.2424221 13.74245071 C11.74592338 13.73426062 9.25015969 13.74452583 6.75370789 13.75949097 C5.66591341 13.74945272 5.66591341 13.74945272 4.55614328 13.73921168 C0.20560087 13.78984442 -2.63968377 14.39687224 -6.0650177 17.14044189 Z M21.9349823 43.14044189 C21.9349823 54.36044189 21.9349823 65.58044189 21.9349823 77.14044189 C69.7849823 77.14044189 117.6349823 77.14044189 166.9349823 77.14044189 C166.9349823 65.92044189 166.9349823 54.70044189 166.9349823 43.14044189 C119.0849823 43.14044189 71.2349823 43.14044189 21.9349823 43.14044189 Z M-91.0650177 94.14044189 C-91.25297381 96.79088294 -91.31685631 99.33595003 -91.29206848 101.9866333 C-91.29236053 102.79647171 -91.29265259 103.60631012 -91.29295349 104.44068909 C-91.2915572 107.12456886 -91.27598205 109.80817296 -91.2603302 112.49200439 C-91.25660113 114.35002491 -91.25375366 116.20804738 -91.25175476 118.06607056 C-91.24410994 122.96190803 -91.22445419 127.85762728 -91.2023468 132.75341797 C-91.18190663 137.74699301 -91.17275696 142.7405871 -91.16267395 147.73419189 C-91.14120908 157.53632724 -91.10706293 167.33837474 -91.0650177 177.14044189 C-48.86023404 186.41964213 -6.86845837 194.25246045 36.2474823 197.89044189 C37.01406158 197.95565033 37.78064087 198.02085876 38.57044983 198.08804321 C46.70415223 198.77048657 54.76491533 199.30174628 62.9349823 199.14044189 C63.08193542 198.05376221 63.08193542 198.05376221 63.2318573 196.94512939 C64.38708374 189.47599291 65.73147296 184.55941834 71.9974823 179.82794189 C78.26819645 176.22561674 84.79935527 176.88207757 91.82096863 176.84527588 C93.34645384 176.8337866 94.87189982 176.81338307 96.3971405 176.78375244 C112.16281678 176.47763941 112.16281678 176.47763941 118.9349823 181.14044189 C124.23692992 186.58191445 125.08531546 191.89241429 125.9349823 199.14044189 C138.79648686 199.3516117 151.39174483 198.83127713 164.1849823 197.51544189 C165.05805023 197.42774536 165.93111816 197.34004883 166.8306427 197.24969482 C202.30749847 193.65768866 237.34577362 187.48308355 271.97013855 178.96075439 C272.65732468 178.79332733 273.3445108 178.62590027 274.05252075 178.45339966 C277.26404312 177.83576215 277.26404312 177.83576215 279.9349823 176.14044189 C280.04065778 173.63107439 280.08176452 171.14908959 280.08024597 168.63897705 C280.08360458 167.85361069 280.0869632 167.06824432 280.09042358 166.25907898 C280.09996324 163.64920492 280.10187829 161.03939483 280.10295105 158.42950439 C280.10616186 156.62208021 280.10952579 154.81465629 280.11303711 153.00723267 C280.11903615 149.2124369 280.12087625 145.41766394 280.12028503 141.62286377 C280.12018344 136.75461219 280.13382925 131.88650655 280.15105724 127.01828957 C280.16216419 123.2831454 280.16420463 119.54803664 280.16367531 115.81287766 C280.16485765 114.01789218 280.16929356 112.22290585 280.17700768 110.42793655 C280.18678003 107.91875181 280.18394036 105.40988542 280.17790222 102.9006958 C280.18352173 102.15564285 280.18914124 101.4105899 280.19493103 100.64295959 C280.17211103 96.92045086 280.05607508 95.32208106 277.9349823 92.14044189 C275.21700116 91.68527829 275.21700116 91.68527829 271.96289825 91.76571178 C270.68174338 91.75850524 269.4005885 91.7512987 268.08061075 91.74387378 C266.64546988 91.75105201 265.21033038 91.75851096 263.77519226 91.76622009 C262.26108696 91.76348208 260.74698354 91.75943222 259.23288488 91.75417644 C255.05681333 91.74354281 250.88095435 91.75174864 246.70489192 91.76292694 C242.20722293 91.77173786 237.7095827 91.76333447 233.21191406 91.75706482 C224.39490056 91.74755656 215.57796865 91.75419435 206.76096117 91.76632776 C196.50291908 91.77992057 186.24489663 91.77831231 175.98684782 91.77619443 C157.68943183 91.77300158 139.39205473 91.78468919 121.09465027 91.80426025 C103.32152624 91.82326567 85.54844779 91.83034817 67.77531433 91.82476807 C48.4425067 91.81871628 29.10971913 91.81887632 9.77691317 91.8302539 C7.71716086 91.83146125 5.65740856 91.83266723 3.59765625 91.83387184 C2.07732065 91.83477715 2.07732065 91.83477715 0.52627119 91.83570075 C-6.63174965 91.83958728 -13.78976304 91.83918343 -20.94778442 91.837286 C-29.66565829 91.83516833 -38.38349215 91.8403555 -47.10135472 91.85489955 C-51.55316997 91.86216511 -56.00492683 91.86620225 -60.45674706 91.86165619 C-64.52651511 91.85760122 -68.59616222 91.86268358 -72.66591185 91.87528227 C-74.14366778 91.87822761 -75.62143501 91.87775211 -77.09918815 91.87363919 C-79.09710114 91.86858048 -81.09503496 91.87687128 -83.09293365 91.8859663 C-84.76245661 91.88726647 -84.76245661 91.88726647 -86.4657073 91.8885929 C-89.22645875 91.87813751 -89.22645875 91.87813751 -91.0650177 94.14044189 Z M79.07902527 192.28668213 C77.42278982 194.97037734 77.54623082 197.09592017 77.5365448 200.23419189 C77.53267761 201.42915283 77.52881042 202.62411377 77.52482605 203.85528564 C77.53642761 205.10438721 77.54802917 206.35348877 77.5599823 207.64044189 C77.54838074 208.88954346 77.53677917 210.13864502 77.52482605 211.42559814 C77.52869324 212.62055908 77.53256042 213.81552002 77.5365448 215.04669189 C77.53992859 216.14303955 77.54331238 217.23938721 77.54679871 218.36895752 C77.74063721 221.10325126 77.74063721 221.10325126 79.07902527 222.99639893 C81.7642599 224.65162249 83.88952497 224.52919048 87.0287323 224.53887939 C88.82117371 224.54468018 88.82117371 224.54468018 90.64982605 224.55059814 C91.89892761 224.53899658 93.14802917 224.52739502 94.4349823 224.51544189 C95.68408386 224.52704346 96.93318542 224.53864502 98.22013855 224.55059814 C99.41509949 224.54673096 100.61006042 224.54286377 101.8412323 224.53887939 C102.93757996 224.53549561 104.03392761 224.53211182 105.16349792 224.52862549 C107.90069122 224.3370396 107.90069122 224.3370396 109.79093933 222.98052979 C111.41533767 220.36783447 111.32352813 218.36442486 111.3334198 215.30059814 C111.33728699 214.15526611 111.34115417 213.00993408 111.34513855 211.82989502 C111.33353699 210.63300049 111.32193542 209.43610596 111.3099823 208.20294189 C111.32158386 207.00991455 111.33318542 205.81688721 111.34513855 204.58770752 C111.33933777 202.86777588 111.33933777 202.86777588 111.3334198 201.11309814 C111.33003601 200.06388184 111.32665222 199.01466553 111.32316589 197.93365479 C110.87254074 194.69113759 110.37983322 193.32414852 107.9349823 191.14044189 C105.08806264 190.53930671 105.08806264 190.53930671 101.8412323 190.64434814 C100.64627136 190.64370361 99.45131042 190.64305908 98.22013855 190.64239502 C96.34648621 190.67236572 96.34648621 190.67236572 94.4349823 190.70294189 C92.56132996 190.69230713 92.56132996 190.69230713 90.64982605 190.68145752 C84.61252216 190.40930778 84.61252216 190.40930778 79.07902527 192.28668213 Z M-91.0650177 192.14044189 C-91.13504703 210.73348855 -91.18797602 229.3265085 -91.22045422 247.91965961 C-91.23593411 256.55246192 -91.25704499 265.18518236 -91.29133606 273.81793213 C-91.32120415 281.34077657 -91.34058454 288.86356174 -91.34728318 296.38646382 C-91.35119986 300.37112876 -91.36042769 304.35562409 -91.38220787 308.34023476 C-91.40253224 312.08879065 -91.40885979 315.83710667 -91.40434074 319.58571243 C-91.40516777 320.96320206 -91.41115768 322.34069949 -91.42263412 323.71814156 C-91.43751295 325.59565082 -91.43219451 327.47328807 -91.42578125 329.35084534 C-91.42854663 330.40261113 -91.43131201 331.45437693 -91.43416119 332.53801441 C-90.9986467 335.60835133 -90.48209656 336.27987993 -88.0650177 338.14044189 C-85.86777014 338.59733203 -85.86777014 338.59733203 -83.38217831 338.5375185 C-82.41398818 338.54965864 -81.44579805 338.56179877 -80.44826883 338.57430679 C-79.38214493 338.57238946 -78.31602102 338.57047213 -77.21759033 338.5684967 C-75.52148757 338.5829251 -75.52148757 338.5829251 -73.79112011 338.59764498 C-69.98188937 338.62612239 -66.17292849 338.63292353 -62.36360168 338.63970947 C-59.64048438 338.65361506 -56.91739935 338.67186713 -54.19430542 338.68971252 C-46.00711043 338.73949143 -37.81993223 338.76056593 -29.63261732 338.77923134 C-25.77612885 338.78876963 -21.91965228 338.80171698 -18.06317329 338.81445885 C-5.24101462 338.85586258 7.58113104 338.89095134 20.40335178 338.90495777 C21.6346642 338.90632316 21.6346642 338.90632316 22.89085161 338.90771614 C23.71368826 338.90862643 24.53652491 338.90953672 25.384296 338.9104746 C27.05166345 338.91233005 28.71903089 338.91419743 30.38639832 338.91607666 C31.21346961 338.91700326 32.04054091 338.91792986 32.89267498 338.91888454 C46.28464642 338.93507184 59.67603112 338.99529039 73.06776429 339.07437638 C86.82017742 339.15493309 100.57229491 339.19781393 114.32494682 339.20333785 C122.04527697 339.20733312 129.76480834 339.22751453 137.48491096 339.28943825 C144.06145949 339.34202985 150.63698416 339.36019587 157.21371008 339.33399526 C160.56803756 339.3216587 163.91860068 339.33072621 167.27293777 339.3728714 C181.04078706 340.24457753 181.04078706 340.24457753 193.66177177 335.98215294 C196.20098709 333.49152163 198.04387544 331.13727787 199.9349823 328.14044189 C201.14338627 326.72659564 202.36911681 325.32708757 203.6224823 323.95294189 C204.16388855 323.32001221 204.7052948 322.68708252 205.2631073 322.03497314 C208.00751732 318.92506927 210.96291736 316.03120415 213.9349823 313.14044189 C213.03675609 310.76746264 213.03675609 310.76746264 209.78675842 310.01571655 C208.35919356 309.59367062 206.92901724 309.18040431 205.49699402 308.77374268 C204.71805283 308.5457901 203.93911163 308.31783752 203.13656616 308.08297729 C201.43949351 307.58738427 199.74136477 307.09539704 198.04233932 306.60654068 C195.34970444 305.83144651 192.66011997 305.04651206 189.97114563 304.25881958 C183.28598278 302.30262693 176.59619758 300.36245044 169.90586853 298.42401123 C164.26382703 296.78892347 158.62397242 295.14667548 152.98692703 293.49444199 C150.34401525 292.72296919 147.69819608 291.96211067 145.05213928 291.20150757 C143.41771324 290.7235247 141.78343805 290.24502556 140.14933777 289.76593018 C139.41866592 289.55903564 138.68799408 289.35214111 137.93518066 289.13897705 C130.46674618 286.92410028 124.86082395 284.23715565 120.9349823 277.14044189 C119.2621076 272.12181779 118.90150881 266.86084071 120.80607605 261.84747314 C123.53434855 257.07970514 126.79188457 254.22572619 131.9349823 252.14044189 C135.304566 251.59003661 138.59883418 251.67319052 142.0052948 251.76544189 C143.06241669 251.77978271 144.11953857 251.79412354 145.20869446 251.80889893 C164.41793794 252.16701123 183.62095006 253.23288591 202.8099823 254.14044189 C209.9255096 254.47569985 217.04120237 254.80691733 224.15721512 255.13171387 C226.95473735 255.26094115 229.75196319 255.39553281 232.54920959 255.53057861 C237.67670652 255.77209055 242.80442003 255.97640199 247.9349823 256.14044189 C248.8186573 256.16877106 249.70233231 256.19710022 250.61278534 256.22628784 C253.23211123 256.29974956 255.85057939 256.34777896 258.47062683 256.38653564 C259.26036833 256.40890289 260.05010983 256.43127014 260.86378288 256.45431519 C265.28658773 256.48599922 267.99171378 256.17884036 271.2474823 253.07794189 C272.17498666 251.78762826 273.06491731 250.47016387 273.9349823 249.14044189 C274.40801285 248.69857544 274.8810434 248.25670898 275.3684082 247.80145264 C278.94280936 244.33162164 280.34909655 241.77127102 280.61613464 236.75592041 C280.6151929 234.67682094 280.58177439 232.59755704 280.5209198 230.51934814 C280.51243011 229.41945053 280.50394043 228.31955292 280.49519348 227.18632507 C280.46174303 223.69084624 280.38647336 220.19771744 280.3099823 216.70294189 C280.27987217 214.3260222 280.25249821 211.94906617 280.22795105 209.57208252 C280.16197922 203.76074074 280.06171315 197.95075924 279.9349823 192.14044189 C277.10551399 192.73529847 274.27609155 193.33037169 271.44670105 193.92559814 C270.58308456 194.10719986 269.71946808 194.28880157 268.8296814 194.47590637 C264.12272473 195.46648208 259.41723657 196.46341042 254.71377563 197.47044373 C212.13142344 206.57179862 169.4094665 211.91862344 125.9349823 214.14044189 C125.81163513 215.03754883 125.68828796 215.93465576 125.561203 216.85894775 C125.39193298 218.03336426 125.22266296 219.20778076 125.04826355 220.41778564 C124.88366638 221.58301758 124.71906921 222.74824951 124.54948425 223.9487915 C123.35760122 230.13929089 119.99472177 233.63754534 114.9349823 237.14044189 C111.32804649 238.34275383 107.98986536 238.34059835 104.2318573 238.37872314 C103.47584229 238.38679489 102.71982727 238.39486664 101.94090271 238.40318298 C100.34048238 238.4170053 98.7400328 238.42773574 97.13957214 238.43560791 C95.51025193 238.44711395 93.88096901 238.46754418 92.25187683 238.49713135 C89.89077789 238.54000381 87.53079816 238.55600432 85.1693573 238.56622314 C84.08929413 238.59248528 84.08929413 238.59248528 82.9874115 238.61927795 C76.83589022 238.59321523 72.71474703 236.68959834 68.1927948 232.54278564 C64.77504079 228.12327615 63.82468386 224.94396079 63.3724823 219.45294189 C63.28869324 218.45907471 63.20490417 217.46520752 63.11857605 216.44122314 C63.05799011 215.68196533 62.99740417 214.92270752 62.9349823 214.14044189 C61.90244324 214.07574707 60.86990417 214.01105225 59.80607605 213.94439697 C13.30983011 210.98422491 -32.44156911 205.10486904 -77.87068176 194.68023682 C-78.60731552 194.5112941 -79.34394928 194.34235138 -80.10290527 194.16828918 C-82.09890772 193.70858507 -84.09384184 193.24424943 -86.08869934 192.77960205 C-88.88355853 192.07045464 -88.88355853 192.07045464 -91.0650177 192.14044189 Z M291.3099823 251.14044189 C290.7634198 251.79786377 290.2168573 252.45528564 289.6537323 253.13262939 C287.80391202 255.29355581 285.83990508 257.27339081 283.8099823 259.26544189 C281.41979573 261.61393916 279.17143012 263.97589297 277.0599823 266.57794189 C274.9349823 269.14044189 274.9349823 269.14044189 272.9349823 270.14044189 C269.92239721 270.24709057 266.93942376 270.28754511 263.92668152 270.27349854 C262.52805028 270.26953741 262.52805028 270.26953741 261.10116386 270.26549625 C250.57421988 270.19248211 240.06982625 269.70402857 229.55705643 269.18389702 C225.97474815 269.00693936 222.39217226 268.83668936 218.8094635 268.66804504 C209.93375759 268.24911352 201.05851208 267.82080902 192.18339539 267.3895874 C184.62968036 267.02259278 177.07575856 266.66072776 169.52143478 266.30647469 C166.00090135 266.13929495 162.48079979 265.96447092 158.96064758 265.78947449 C156.80513921 265.68787127 154.64961238 265.58665882 152.49406433 265.48590088 C151.52364197 265.43555191 150.5532196 265.38520294 149.5533905 265.33332825 C144.52102594 265.1069903 139.88371351 265.1445924 134.9349823 266.14044189 C133.63864609 267.20689304 133.63864609 267.20689304 133.8724823 269.70294189 C133.8931073 270.50731689 133.9137323 271.31169189 133.9349823 272.14044189 C139.14581302 274.4992357 144.33875965 276.25748899 149.83610535 277.82012939 C150.69877014 278.06934143 151.56143494 278.31855347 152.45024109 278.57531738 C154.31136269 279.11247924 156.17305884 279.64765368 158.03526878 280.18103027 C160.98296327 281.02583459 163.92877657 281.87692291 166.87414551 282.72979736 C175.2444283 285.15247244 183.61763451 287.56493296 191.99284363 289.97052002 C197.12526129 291.44516299 202.25525284 292.92800165 207.38384438 294.41589355 C209.33615735 294.98044943 211.28940257 295.54179178 213.24358177 296.09985352 C215.97201688 296.87915322 218.69726516 297.66877727 221.42204285 298.46075439 C222.22888016 298.68837463 223.03571747 298.91599487 223.86700439 299.1505127 C231.20900325 301.30658716 231.20900325 301.30658716 233.9349823 304.14044189 C234.58739742 308.03061902 234.91347828 310.5220755 232.84855652 313.93731689 C231.27798391 315.7836793 229.61956353 317.4601384 227.8724823 319.14044189 C226.5880504 320.44195533 225.30421706 321.74405969 224.0209198 323.04669189 C223.01496765 324.04829346 223.01496765 324.04829346 221.98869324 325.07012939 C218.57288296 328.51355202 215.29439591 332.08369562 211.9974823 335.64044189 C207.89285613 340.04803511 203.72364319 344.36832666 199.45085144 348.61309814 C197.76454543 350.31216892 196.1737195 352.06742459 194.6224823 353.89044189 C190.89457731 358.21853114 187.03665605 362.4212313 183.1693573 366.62481689 C180.92295195 368.98964381 180.92295195 368.98964381 179.5834198 371.44512939 C177.9349823 373.14044189 177.9349823 373.14044189 174.8021698 373.60137939 C173.48474792 373.57302002 172.16732605 373.54466064 170.8099823 373.51544189 C170.08295105 373.50255127 169.3559198 373.48966064 168.6068573 373.47637939 C160.63951432 373.2660205 152.69002975 372.57046231 144.75480652 371.85284424 C138.78299698 371.3180695 132.93107712 371.04050698 126.9349823 371.14044189 C126.4399823 373.12044189 126.4399823 373.12044189 125.9349823 375.14044189 C131.9376105 379.63614398 138.02836499 383.91203366 144.3256073 387.98028564 C144.96518372 388.39589752 145.60476013 388.8115094 146.26371765 389.23971558 C148.90166249 390.95378837 151.53951765 392.66727011 154.19377136 394.35601807 C162.13391515 399.41897492 168.7489508 404.11512656 173.9349823 412.14044189 C174.79338462 413.40780267 175.65447361 414.6733458 176.51750183 415.93756104 C179.50576659 420.33534206 182.44061233 424.76745163 185.3724823 429.20294189 C186.40015236 430.7519855 187.42814462 432.30081541 188.45646667 433.84942627 C190.95302627 437.61064492 193.44520921 441.37472778 195.9349823 445.14044189 C197.5849823 444.81044189 199.2349823 444.48044189 200.9349823 444.14044189 C200.50157173 435.92225741 199.94556187 427.74723333 199.0052948 419.57012939 C198.84855467 418.14570408 198.69230542 416.72122466 198.5365448 415.29669189 C198.29981149 413.13340507 198.05463674 410.97269638 197.78459167 408.81329346 C197.51987658 406.67176741 197.29082525 404.52884459 197.0677948 402.38262939 C196.92229187 401.1333667 196.77678894 399.884104 196.62687683 398.59698486 C197.12121325 393.05117266 200.21917201 390.61702864 204.3724823 387.04278564 C205.2181073 386.39438721 206.0637323 385.74598877 206.9349823 385.07794189 C212.0856123 380.96994955 216.68760491 376.50544438 221.29924011 371.80718994 C224.74995599 368.29916863 228.29107196 364.9978784 232.0443573 361.81231689 C234.27145309 359.84290161 236.34713184 357.75669848 238.4349823 355.64044189 C241.82298784 352.21175704 245.29244241 348.9633726 248.9662323 345.84356689 C250.33239186 344.66173045 251.6641098 343.43935776 252.9662323 342.18731689 C256.24506101 339.0850405 258.34688017 337.31398023 262.7474823 336.01544189 C265.9349823 336.14044189 265.9349823 336.14044189 267.53913879 337.39370728 C269.08221641 339.32468814 269.72641354 340.85726462 270.45597839 343.2131958 C270.84833176 344.45956314 270.84833176 344.45956314 271.24861145 345.73110962 C271.52409821 346.6422049 271.79958496 347.55330017 272.0834198 348.49200439 C272.53205887 349.939254 272.53205887 349.939254 272.98976135 351.41574097 C276.98850715 364.40612114 280.76699651 377.46389475 284.5599823 390.51544189 C290.11376548 409.6845439 290.11376548 409.6845439 295.8334198 428.80450439 C296.19870789 430.00800537 296.56399597 431.21150635 296.94035339 432.45147705 C297.76064034 435.24468777 297.76064034 435.24468777 299.9349823 437.14044189 C302.71735885 436.73515288 302.71735885 436.73515288 304.9349823 435.14044189 C305.04314351 432.47622033 305.08004684 429.84493219 305.06584167 427.18023682 C305.06313011 426.33661937 305.06041855 425.49300192 305.05762482 424.6238203 C304.97192461 413.23924086 304.38611149 401.87356661 303.8412323 390.50372314 C303.72869575 388.08383673 303.61660291 385.66392965 303.50492859 383.2440033 C303.21273875 376.93259116 302.91566626 370.62141951 302.61717224 364.31030273 C302.13840038 354.17365196 301.66637152 344.03668723 301.19589233 333.89964867 C301.03154771 330.37657727 300.86459651 326.85363658 300.6973114 323.33070374 C300.59612111 321.16873522 300.49500235 319.00676335 300.39396667 316.8447876 C300.34721298 315.87481842 300.30045929 314.90484924 300.25228882 313.90548706 C300.1325202 311.3174384 300.02836753 308.72956448 299.9349823 306.14044189 C299.90253922 305.3643778 299.87009613 304.58831371 299.83666992 303.78873253 C299.69948701 298.43435105 299.69948701 298.43435105 301.9349823 295.64434814 C302.9249823 294.81805908 303.9149823 293.99177002 304.9349823 293.14044189 C306.21697354 291.8690428 307.48688262 290.58539759 308.7474823 289.29278564 C310.14326404 287.88778647 311.53909852 286.48283969 312.9349823 285.07794189 C313.63365417 284.37089111 314.33232605 283.66384033 315.0521698 282.93536377 C317.85666717 280.11763764 320.59251536 277.41162177 323.71232605 274.94122314 C332.61109346 267.73150122 337.92547196 255.16362544 339.9349823 244.14044189 C340.28740052 240.11620682 340.58961624 236.13884332 339.9349823 232.14044189 C325.53174655 222.53828473 300.34732762 240.7362746 291.3099823 251.14044189 Z " fill="#f14f44" transform="translate(135.0650177001953,29.85955810546875)"/>
</svg>
