<?xml version="1.0" encoding="UTF-8"?>
<svg version="1.1" xmlns="http://www.w3.org/2000/svg" width="512" height="512">
<path d="M0 0 C2.59521484 1.06298828 2.59521484 1.06298828 5.2109375 2.5703125 C6.19570068 3.12968506 7.18046387 3.68905762 8.19506836 4.26538086 C9.2444458 4.87905518 10.29382324 5.49272949 11.375 6.125 C12.4791626 6.75736572 13.5833252 7.38973145 14.72094727 8.04125977 C18.15568401 10.01363687 21.57872626 12.00438057 25 14 C27.02206906 15.17329145 29.04420175 16.34647324 31.06640625 17.51953125 C35.01897168 19.81764885 38.96605114 22.12489605 42.91015625 24.4375 C49.21570657 28.13213449 55.54310634 31.78824234 61.875 35.4375 C62.94282715 36.05351074 64.0106543 36.66952148 65.11083984 37.30419922 C70.17649678 40.22526036 75.24463472 43.14186435 80.3192749 46.04728699 C82.09184277 47.06250835 83.86366231 48.07902339 85.63525391 49.09594727 C87.85088136 50.3672736 90.06791074 51.63616121 92.28662109 52.90209961 C109.61886583 62.85659748 109.61886583 62.85659748 111 67 C111.09626357 68.70144384 111.13493125 70.40640925 111.14044189 72.11056519 C111.14615204 73.16764679 111.15186218 74.22472839 111.15774536 75.31384277 C111.15942215 77.05317078 111.15942215 77.05317078 111.16113281 78.82763672 C111.16609772 80.04899323 111.17106262 81.27034973 111.17617798 82.52871704 C111.18828708 85.88002389 111.19574475 89.23126833 111.20018864 92.58258963 C111.2031208 94.67668648 111.20722586 96.77077787 111.21169281 98.86487198 C111.22536439 105.417868 111.23503295 111.97085152 111.2388947 118.52386081 C111.24337609 126.08656714 111.26092902 133.6490928 111.2898953 141.21174419 C111.31151339 147.05897195 111.32159903 152.90614888 111.32293582 158.75341618 C111.32398368 162.24513453 111.32988728 165.73668297 111.34775543 169.22835922 C111.36730083 173.12349019 111.36294662 177.01839536 111.35644531 180.91357422 C111.3656601 182.06907776 111.37487488 183.2245813 111.3843689 184.4151001 C111.37601517 186.00918198 111.37601517 186.00918198 111.36749268 187.63546753 C111.36895924 188.55612944 111.3704258 189.47679134 111.3719368 190.4253521 C110.9185481 193.56383228 109.83578599 195.43469859 108 198 C105.63427734 199.6940918 105.63427734 199.6940918 102.8359375 201.19921875 C101.8054126 201.76310303 100.7748877 202.3269873 99.71313477 202.90795898 C98.61155029 203.49520752 97.50996582 204.08245605 96.375 204.6875 C94.07866142 205.94130705 91.78308892 207.19651818 89.48828125 208.453125 C88.3688916 209.06220703 87.24950195 209.67128906 86.09619141 210.29882812 C82.2051376 212.43672932 78.37496914 214.66324319 74.5625 216.9375 C64.24766072 223.06094083 53.84281346 229.02778197 43.44775391 235.01367188 C38.83533009 237.67099238 34.22540879 240.33262836 29.6159668 242.99511719 C27.39584637 244.27627176 25.17467662 245.55560992 22.95239258 246.83300781 C18.43738321 249.42890357 13.92824806 252.0283764 9.46875 254.71875 C8.82389648 255.10297119 8.17904297 255.48719238 7.51464844 255.88305664 C5.91563486 256.83852698 4.3245222 257.80718918 2.734375 258.77734375 C-0.51021526 260.22813911 -2.46568926 260.2740894 -6 260 C-8.70629883 258.87353516 -8.70629883 258.87353516 -11.45703125 257.2890625 C-12.47788818 256.70906494 -13.49874512 256.12906738 -14.55053711 255.53149414 C-15.62698486 254.90235107 -16.70343262 254.27320801 -17.8125 253.625 C-18.93470947 252.98232178 -20.05691895 252.33964355 -21.21313477 251.67749023 C-24.48390949 249.79919337 -27.74384725 247.90350871 -31 246 C-31.79438477 245.53706543 -32.58876953 245.07413086 -33.40722656 244.59716797 C-36.76884506 242.63505173 -40.12112824 240.65775906 -43.46875 238.671875 C-49.09868001 235.33998006 -54.76925163 232.07862986 -60.4375 228.8125 C-61.53674805 228.17884521 -62.63599609 227.54519043 -63.76855469 226.89233398 C-69.48466031 223.5984964 -75.20281384 220.30823389 -80.921875 217.01953125 C-86.34173144 213.90186324 -91.75581882 210.77440152 -97.16552734 207.63916016 C-99.73766497 206.15170692 -102.31558856 204.67482436 -104.89453125 203.19921875 C-106.2634842 202.40444342 -107.63201698 201.60894363 -109 200.8125 C-110.134375 200.15894531 -111.26875 199.50539063 -112.4375 198.83203125 C-115.15346671 196.89028066 -115.82514526 196.03605184 -117 193 C-117.25447559 190.55398655 -117.25447559 190.55398655 -117.26069641 187.7691803 C-117.26778122 186.71072403 -117.27486603 185.65226776 -117.28216553 184.56173706 C-117.27968811 183.40578033 -117.27721069 182.24982361 -117.2746582 181.05883789 C-117.2823246 179.22658409 -117.2823246 179.22658409 -117.29014587 177.35731506 C-117.3016649 174.01013383 -117.30411537 170.66320022 -117.30158257 167.31601644 C-117.30051239 164.52028351 -117.30539745 161.72457339 -117.310188 158.92884535 C-117.32128074 152.33251038 -117.3217219 145.73623236 -117.31567383 139.13989258 C-117.30963325 132.33815009 -117.32194756 125.53661442 -117.3432439 118.73490721 C-117.36086487 112.8918959 -117.36686049 107.04895039 -117.36360615 101.20591348 C-117.36179394 97.71757695 -117.36442318 94.22938796 -117.37832069 90.74107552 C-117.39323983 86.8508201 -117.38392453 82.96082772 -117.37231445 79.07055664 C-117.37995819 77.91662415 -117.38760193 76.76269165 -117.39547729 75.5737915 C-117.38846298 74.51251541 -117.38144867 73.45123932 -117.3742218 72.35780334 C-117.37447341 70.97875871 -117.37447341 70.97875871 -117.37473011 69.57185459 C-116.91792686 66.43671413 -115.83367945 64.56349588 -114 62 C-111.63427734 60.3059082 -111.63427734 60.3059082 -108.8359375 58.80078125 C-107.8054126 58.23689697 -106.7748877 57.6730127 -105.71313477 57.09204102 C-104.06075806 56.21116821 -104.06075806 56.21116821 -102.375 55.3125 C-100.07866142 54.05869295 -97.78308892 52.80348182 -95.48828125 51.546875 C-94.3688916 50.93779297 -93.24950195 50.32871094 -92.09619141 49.70117188 C-88.2051376 47.56327068 -84.37496914 45.33675681 -80.5625 43.0625 C-70.24766072 36.93905917 -59.84281346 30.97221803 -49.44775391 24.98632812 C-44.83533009 22.32900762 -40.22540879 19.66737164 -35.6159668 17.00488281 C-33.39584637 15.72372824 -31.17467662 14.44439008 -28.95239258 13.16699219 C-24.43738321 10.57109643 -19.92824806 7.9716236 -15.46875 5.28125 C-14.50146973 4.70491821 -14.50146973 4.70491821 -13.51464844 4.11694336 C-11.91563486 3.16147302 -10.3245222 2.19281082 -8.734375 1.22265625 C-5.4969689 -0.22492676 -3.52544752 -0.26491329 0 0 Z M-9.984375 19.625 C-10.91894531 20.16640625 -11.85351562 20.7078125 -12.81640625 21.265625 C-13.78449219 21.83796875 -14.75257813 22.4103125 -15.75 23 C-16.73355469 23.57234375 -17.71710938 24.1446875 -18.73046875 24.734375 C-21.15824855 26.14861566 -23.58107122 27.57069059 -26 29 C-22.59166354 31.8455204 -19.16533016 34.18211602 -15.30078125 36.36328125 C-14.18751465 36.99500244 -13.07424805 37.62672363 -11.92724609 38.27758789 C-11.33901062 38.60872589 -10.75077515 38.93986389 -10.14471436 39.28103638 C-7.63313685 40.69495436 -5.12707484 42.1185265 -2.62054443 43.54136658 C-1.32383464 44.27727543 -0.02683499 45.01267376 1.27044678 45.74757385 C7.57436229 49.31957832 13.85212737 52.93628118 20.125 56.5625 C22.24609241 57.78776274 24.36718616 59.01302315 26.48828125 60.23828125 C27.5448291 60.84881348 28.60137695 61.4593457 29.68994141 62.08837891 C33.20233353 64.11685142 36.71619071 66.14276619 40.23046875 68.16796875 C41.42757654 68.85798299 42.62467946 69.54800568 43.82177734 70.23803711 C46.09402972 71.54780755 48.3665259 72.85715172 50.63916016 74.16625977 C51.66187012 74.75592529 52.68458008 75.34559082 53.73828125 75.953125 C54.63587158 76.47036133 55.53346191 76.98759766 56.45825195 77.52050781 C59 79 59 79 61.51635742 80.81542969 C63.94771111 82.30130961 63.94771111 82.30130961 66.5222168 81.35009766 C67.33988525 80.90456543 68.15755371 80.4590332 69 80 C69.7628833 79.59185059 70.5257666 79.18370117 71.31176758 78.76318359 C72.08157959 78.31281738 72.8513916 77.86245117 73.64453125 77.3984375 C74.90620117 76.66367188 74.90620117 76.66367188 76.19335938 75.9140625 C77.05767578 75.40617187 77.92199219 74.89828125 78.8125 74.375 C80.13797852 73.6015625 80.13797852 73.6015625 81.49023438 72.8125 C83.66194789 71.54468886 85.8317818 70.27377652 88 69 C85.07024778 66.7124904 82.05999635 64.80021208 78.8359375 62.953125 C77.29679687 62.06850586 77.29679687 62.06850586 75.7265625 61.16601562 C74.62054688 60.53373047 73.51453125 59.90144531 72.375 59.25 C71.20817378 58.58035607 70.04150991 57.91042916 68.875 57.24023438 C66.45212488 55.84851231 64.02855654 54.45800896 61.60449219 53.06835938 C56.0630997 49.89028968 50.53209794 46.69421096 45 43.5 C42.85811906 42.26424294 40.71619169 41.02856635 38.57421875 39.79296875 C34.59537568 37.49750542 30.61669227 35.20176586 26.63821411 32.90567017 C24.84933082 31.87326522 23.06041283 30.84092044 21.27148438 29.80859375 C19.02662364 28.51314052 16.7818281 27.2175743 14.53710938 25.921875 C12.55302889 24.77697123 10.56761489 23.63437374 8.58056641 22.49462891 C6.99486674 21.57621326 5.4169623 20.64397174 3.85302734 19.68896484 C-1.58787402 16.39499035 -4.56895423 16.4549976 -9.984375 19.625 Z M-48.5625 42 C-49.17802734 42.3815625 -49.79355469 42.763125 -50.42773438 43.15625 C-51.9530539 44.10218459 -53.47668476 45.05084113 -55 46 C-52.5849251 48.67813752 -49.98947088 50.3043511 -46.86328125 52.08203125 C-45.82381348 52.67685303 -44.7843457 53.2716748 -43.71337891 53.88452148 C-42.59108887 54.52075439 -41.46879883 55.1569873 -40.3125 55.8125 C-38.53455888 56.82757796 -36.75762236 57.84439976 -34.98071289 58.86128235 C-33.76634689 59.55607756 -32.55166262 60.25031679 -31.33666992 60.9440155 C-25.57572836 64.23478815 -19.84883837 67.58266381 -14.125 70.9375 C-7.62044359 74.74435191 -1.10123843 78.5237095 5.4453125 82.2578125 C6.07500946 82.61700272 6.70470642 82.97619293 7.35348511 83.3462677 C10.42127119 85.09514069 13.49064083 86.84117102 16.56201172 88.58374023 C21.32054458 91.29065915 26.04251259 93.9933848 30.62890625 96.984375 C33.77162393 99.32191126 33.77162393 99.32191126 36.9375 98.6875 C41.13675142 96.37362677 45.08612422 93.76580555 49 91 C44.34558255 86.90411264 39.0821735 84.10974862 33.6875 81.125 C25.47536117 76.53350483 17.30531781 71.88134952 9.1875 67.125 C-0.49329779 61.45681119 -10.19914928 55.83394212 -19.92114258 50.23681641 C-20.93200928 49.65464355 -21.94287598 49.0724707 -22.984375 48.47265625 C-23.96728516 47.90691895 -24.95019531 47.34118164 -25.96289062 46.75830078 C-30.2254001 44.2905682 -34.46770167 41.78862575 -38.70800781 39.28295898 C-42.80997879 36.98685146 -44.91706451 39.72592433 -48.5625 42 Z M-77.984375 58.625 C-78.91894531 59.16640625 -79.85351562 59.7078125 -80.81640625 60.265625 C-81.78449219 60.83796875 -82.75257813 61.4103125 -83.75 62 C-84.73355469 62.57234375 -85.71710938 63.1446875 -86.73046875 63.734375 C-89.15824855 65.14861566 -91.58107122 66.57069059 -94 68 C-90.71902718 70.72535098 -87.44143068 73.03219711 -83.73828125 75.14453125 C-82.71541016 75.73105469 -81.69253906 76.31757813 -80.63867188 76.921875 C-79.54103516 77.54578125 -78.44339844 78.1696875 -77.3125 78.8125 C-76.15013283 79.47741412 -74.98802819 80.14278737 -73.82617188 80.80859375 C-71.4145854 82.1900913 -69.00188656 83.56961565 -66.58837891 84.94775391 C-61.04829041 88.11338557 -55.52506459 91.30824641 -50 94.5 C-47.85814895 95.73580887 -45.71622141 96.97148517 -43.57421875 98.20703125 C-39.59537568 100.50249458 -35.61669227 102.79823414 -31.63821411 105.09432983 C-29.84933082 106.12673478 -28.06041283 107.15907956 -26.27148438 108.19140625 C-24.02662364 109.48685948 -21.7818281 110.7824257 -19.53710938 112.078125 C-17.55219634 113.22350919 -15.56428951 114.36372852 -13.57275391 115.49755859 C-11.99791562 116.41723546 -10.4418018 117.3713009 -8.92333984 118.38134766 C-6.0654725 120.25196594 -4.55522859 121.08275765 -1.1171875 120.5703125 C2.98824536 118.50216211 6.9428007 116.25431382 10.875 113.875 C11.65875 113.40707031 12.4425 112.93914062 13.25 112.45703125 C15.16982472 111.30981892 17.08630561 110.1573993 19 109 C17.7220314 105.1660942 16.52549332 104.89363185 13.03125 102.99609375 C11.47579468 102.14059937 11.47579468 102.14059937 9.88891602 101.26782227 C8.77057373 100.66381592 7.65223145 100.05980957 6.5 99.4375 C4.18543129 98.16545643 1.87162963 96.89201618 -0.44140625 95.6171875 C-1.57336426 94.99553711 -2.70532227 94.37388672 -3.87158203 93.73339844 C-7.76711061 91.57495822 -11.61153611 89.34136343 -15.4375 87.0625 C-23.66214216 82.17931067 -31.94325116 77.39640201 -40.23657227 72.63085938 C-45.42557051 69.64765199 -50.60484012 66.65206181 -55.75 63.59375 C-56.62156738 63.07868896 -57.49313477 62.56362793 -58.39111328 62.03295898 C-60.0031026 61.07866257 -61.61112184 60.11761568 -63.21435547 59.14868164 C-63.92479004 58.72965576 -64.63522461 58.31062988 -65.3671875 57.87890625 C-65.97675293 57.5135376 -66.58631836 57.14816895 -67.21435547 56.77172852 C-71.50255893 54.91843194 -74.29149197 56.46331238 -77.984375 58.625 Z M-102 82 C-102 116.65 -102 151.3 -102 187 C-83.84635678 197.47428866 -83.84635678 197.47428866 -65.68847656 207.94116211 C-56.19316308 213.41307957 -46.71281984 218.90957398 -37.25 224.4375 C-34.36386668 226.12170268 -31.47748486 227.80547752 -28.59082031 229.48876953 C-26.93865619 230.45248004 -25.28691817 231.41692166 -23.63574219 232.38232422 C-21.63464783 233.55090222 -19.63050634 234.71401569 -17.625 235.875 C-16.56539063 236.49117187 -15.50578125 237.10734375 -14.4140625 237.7421875 C-12.15806863 239.15402517 -12.15806863 239.15402517 -10 239 C-10 204.35 -10 169.7 -10 134 C-18.25 129.38 -26.5 124.76 -35 120 C-46.9375 113.0625 -46.9375 113.0625 -52.87109375 109.5859375 C-66.70926247 101.47800318 -80.60021298 93.45499889 -94.5625 85.5625 C-95.21734375 85.19084717 -95.8721875 84.81919434 -96.546875 84.4362793 C-99.12213038 82.73147168 -99.12213038 82.73147168 -102 82 Z M91.140625 84.08203125 C90.35429687 84.51966797 89.56796875 84.95730469 88.7578125 85.40820312 C87.51644531 86.10333008 87.51644531 86.10333008 86.25 86.8125 C85.43789063 87.26431641 84.62578125 87.71613281 83.7890625 88.18164062 C81.52131336 89.44663099 79.25499364 90.71239564 77 92 C76.0925 92.31437012 75.185 92.62874023 74.25 92.95263672 C71.81687839 94.75208789 71.81687839 94.75208789 71.59320068 97.19700623 C71.47150234 100.22277281 71.5193279 103.21137071 71.609375 106.23828125 C71.62215818 108.52538492 71.63384254 110.81249495 71.64453125 113.09960938 C71.69021511 116.70789734 71.75005523 120.31494508 71.83154297 123.92260742 C71.90062544 127.40364941 71.91440006 130.8816389 71.921875 134.36328125 C71.96213806 135.43846512 72.00240112 136.51364899 72.04388428 137.62141418 C72.02068817 144.94361714 72.02068817 144.94361714 69.13209534 147.93322754 C66.82031733 149.49528497 64.50218897 150.77037888 62 152 C61.00798584 152.61858887 60.01597168 153.23717773 58.99389648 153.87451172 C56.1520526 155.55956669 53.29772599 157.22134416 50.4375 158.875 C48.9534668 159.76445312 48.9534668 159.76445312 47.43945312 160.671875 C41.72114175 163.96550093 37.64366109 166.11108192 31 165 C28.9774466 161.9661699 28.74422913 161.31241136 28.68115234 157.89575195 C28.66128265 157.07512772 28.64141296 156.25450348 28.62094116 155.40901184 C28.60938995 154.52767075 28.59783875 153.64632965 28.5859375 152.73828125 C28.56657135 151.83248825 28.5472052 150.92669525 28.5272522 149.99345398 C28.46746458 147.09989849 28.42107432 144.2063032 28.375 141.3125 C28.33681946 139.35089409 28.29776769 137.38930494 28.2578125 135.42773438 C28.16176368 130.6186256 28.07772957 125.80943834 28 121 C27.35675781 121.35191406 26.71351563 121.70382813 26.05078125 122.06640625 C18.71587575 126.07392238 11.35960087 130.03713799 4 134 C4 168.65 4 203.3 4 239 C8.28456404 237.57181199 11.1910008 236.48701477 14.921875 234.26953125 C15.85112793 233.72176025 16.78038086 233.17398926 17.73779297 232.60961914 C18.73182129 232.01656982 19.72584961 231.42352051 20.75 230.8125 C22.91367549 229.53580222 25.07775166 228.25978329 27.2421875 226.984375 C28.91619629 225.9953418 28.91619629 225.9953418 30.62402344 224.98632812 C36.02126404 221.81074601 41.44767666 218.68629931 46.875 215.5625 C49.03906437 214.31510741 51.20312686 213.06771156 53.3671875 211.8203125 C56.75003906 209.87157246 60.13314846 207.92328132 63.51660156 205.97558594 C65.87346291 204.61884742 68.23006924 203.26166779 70.58642578 201.90405273 C72.79006869 200.63453881 74.99413955 199.36576732 77.19873047 198.09790039 C78.20564941 197.5177417 79.21256836 196.93758301 80.25 196.33984375 C81.12140625 195.83831787 81.9928125 195.33679199 82.890625 194.82006836 C83.91671875 194.2194458 84.9428125 193.61882324 86 193 C86.80890875 192.62794654 87.6178175 192.25589308 88.45123863 191.87256527 C93.69542338 189.3585699 93.69542338 189.3585699 96.91026688 184.77618694 C97.23317975 182.0319196 97.23864812 179.44171352 97.13525391 176.68017578 C97.13744431 175.14267418 97.13744431 175.14267418 97.13967896 173.57411194 C97.13272713 170.19566947 97.05504064 166.82278709 96.9765625 163.4453125 C96.95790537 161.09979262 96.94367353 158.7542337 96.9336853 156.40866089 C96.8955495 150.24267493 96.79736092 144.07905439 96.68664551 137.91400146 C96.58424592 131.62007652 96.53865471 125.3257683 96.48828125 119.03125 C96.38111543 106.68646213 96.21050186 94.34342794 96 82 C94.18923115 82 92.68872031 83.21875069 91.140625 84.08203125 Z M44.30181885 110.47998047 C40.23470687 115.22878992 41.76312154 123.20406199 42.1875 129 C42.25279487 130.55314287 42.31209587 132.10654996 42.36523438 133.66015625 C42.50772953 137.44668459 42.73134666 141.2204131 43 145 C45.00130338 144.33725628 47.00109163 143.66993265 49 143 C49.76505859 142.77546143 50.53011719 142.55092285 51.31835938 142.31958008 C53.95775544 141.19554605 55.25586569 140.31119015 57 138 C58.02637109 132.20934654 57.75154652 126.54129603 57.5 120.6875 C57.45985202 119.07235312 57.42335348 117.45711113 57.390625 115.84179688 C57.30265046 111.89217977 57.16474097 107.9471302 57 104 C52.7810223 104 47.45307586 107.88893369 44.30181885 110.47998047 Z " fill="#f14f44" transform="translate(259,126)"/>
<path d="M0 0 C1.62131836 -0.04350586 1.62131836 -0.04350586 3.27539062 -0.08789062 C9.5365068 -0.13785656 13.51228552 -0.04377306 18.1875 4.3125 C20.06085011 7.85848414 21.15528663 11.19169987 22.1875 15.0625 C23.14039608 18.15941227 23.65416924 19.41250193 26.1875 21.3125 C29.34732889 22.89241444 31.68805861 22.65670735 35.1875 22.3125 C37.05958108 21.16776168 38.71125637 19.85638731 40.4375 18.50390625 C43.32951363 16.53501304 45.73778153 16.3125 49.1875 16.3125 C55.37052182 18.33401492 59.03933444 21.60726646 63.5 26.25 C64.11939453 26.87068359 64.73878906 27.49136719 65.37695312 28.13085938 C69.27920555 32.10937732 71.96882202 34.95077785 72.5 40.6875 C72.07637374 45.60156467 70.28296862 48.7866687 67.4375 52.75 C65.68089064 56.35104918 66.14666646 58.49611037 67.1875 62.3125 C70.01995129 65.80800238 72.2701359 66.89441492 76.625 67.8125 C81.02314272 68.92083197 84.17844338 69.72104532 87.1875 73.3125 C89.31424395 78.57872313 89.37738289 83.74079827 89.4375 89.375 C89.4516394 90.38385254 89.4516394 90.38385254 89.46606445 91.41308594 C89.42716799 97.41635077 88.80154203 102.4915295 84.75 107.0625 C81.14010472 109.79672761 77.04197425 110.60905735 72.67578125 111.5390625 C69.96646904 112.3812035 68.87143861 113.05655685 67.1875 115.3125 C65.75295592 120.42171114 65.75295592 120.42171114 67.2109375 125.28515625 C68.0869161 126.47760111 69.00243346 127.64235192 69.9609375 128.76953125 C72.75186354 132.28040955 72.54414647 136.03274232 72.1875 140.3125 C68.97512714 148.26694708 61.41393894 155.88611351 54.05078125 160.11328125 C50.43254561 161.62869509 48.08395723 161.79101229 44.1875 161.3125 C40.5904808 159.73277817 37.44951525 157.48717684 34.1875 155.3125 C28.47342404 155.38296977 28.47342404 155.38296977 23.8125 158.3125 C22.02487462 161.61273148 21.49309907 164.43814106 20.81640625 168.08984375 C19.79032249 171.71618948 17.83129801 173.66870199 15.1875 176.3125 C10.7490003 178.53174985 4.74884797 177.58725724 -0.125 177.625 C-1.36185547 177.65400391 -2.59871094 177.68300781 -3.87304688 177.71289062 C-5.66258789 177.72545898 -5.66258789 177.72545898 -7.48828125 177.73828125 C-8.58052002 177.75286377 -9.67275879 177.76744629 -10.7980957 177.7824707 C-14.50640913 177.2043138 -16.13392771 175.88444457 -18.8125 173.3125 C-20.57279525 170.55725526 -21.15042769 168.01301256 -21.6875 164.8125 C-22.53686168 160.87042441 -23.29105136 158.5966829 -26.8125 156.3125 C-30.62888963 155.27166646 -32.77395082 154.80589064 -36.375 156.5625 C-37.179375 157.14 -37.98375 157.7175 -38.8125 158.3125 C-43.36336092 160.98365749 -46.52115272 161.97391841 -51.8125 161.3125 C-59.5249103 156.78846044 -70.38885718 148.46401589 -72.8125 139.4375 C-73.21211902 135.16706142 -71.92523695 132.02800291 -69.8125 128.3125 C-69.255625 127.6525 -68.69875 126.9925 -68.125 126.3125 C-66.14014751 123.28796288 -66.49728222 120.84293908 -66.8125 117.3125 C-68.00017855 113.93218411 -68.71075225 113.38033183 -71.8125 111.3125 C-73.78198262 110.83328693 -75.7629855 110.40035026 -77.75 110 C-81.7681695 109.0488391 -83.46347165 108.64529447 -86.5 105.75 C-89.41550136 100.33549748 -89.03390089 95.66840909 -89.0625 89.5625 C-89.083125 88.47710937 -89.10375 87.39171875 -89.125 86.2734375 C-89.15288874 80.57019049 -89.16888166 76.17682125 -85.8125 71.3125 C-82.7926546 68.8255685 -80.07120975 68.12430743 -76.3125 67.4375 C-71.8364856 66.51838519 -69.48093379 65.18603292 -66.8125 61.3125 C-65.73881939 55.62199279 -67.56715524 52.80080892 -70.62109375 48.28515625 C-72.44862172 45.25924929 -72.8125 42.82247764 -72.8125 39.3125 C-70.79715055 33.26645165 -67.66415899 29.46227999 -63.1875 25 C-62.60871094 24.38060547 -62.02992188 23.76121094 -61.43359375 23.12304688 C-57.11663987 18.77303099 -53.02815205 16.57130273 -46.8125 16.3125 C-43.17782277 17.46348112 -40.45834725 18.87655311 -37.3125 21 C-33.87171093 22.80641426 -31.64535409 22.86005058 -27.8125 22.3125 C-22.60823346 18.88241524 -21.98006388 14.62688865 -20.625 8.9140625 C-19.44925534 5.14941855 -17.93900742 3.65738056 -14.8125 1.3125 C-9.98457263 -0.29680912 -5.05644272 0.04474728 0 0 Z M-5.8125 15.3125 C-6.28429687 16.52486328 -6.28429687 16.52486328 -6.765625 17.76171875 C-7.19359375 18.83035156 -7.6215625 19.89898437 -8.0625 21 C-8.48015625 22.05574219 -8.8978125 23.11148437 -9.328125 24.19921875 C-12.31497005 30.46373324 -15.77994132 33.29622066 -21.8125 36.3125 C-28.66994023 38.48330393 -36.36323922 38.36400158 -42.8125 35.1875 C-43.493125 34.79304688 -44.17375 34.39859375 -44.875 33.9921875 C-46.83491011 33.07932606 -46.83491011 33.07932606 -48.890625 34.03125 C-51.54731332 35.80237555 -53.62315475 38.00152446 -55.8125 40.3125 C-55.52375 41.01375 -55.235 41.715 -54.9375 42.4375 C-54.56625 43.38625 -54.195 44.335 -53.8125 45.3125 C-53.44125 46.158125 -53.07 47.00375 -52.6875 47.875 C-50.61457764 56.01862356 -51.11640495 63.78830651 -54.8125 71.3125 C-58.86899194 78.0213136 -66.49110747 81.24749185 -73.8125 83.3125 C-73.8125 87.2725 -73.8125 91.2325 -73.8125 95.3125 C-72.3275 95.663125 -70.8425 96.01375 -69.3125 96.375 C-62.76649257 98.36847252 -58.32456309 101.67923361 -54.4296875 107.3125 C-51.11318046 113.62082107 -50.89764902 120.33676131 -51.8125 127.3125 C-52.87911311 130.25947847 -54.20329231 132.59696202 -55.8125 135.3125 C-56.1339614 138.32648471 -56.1339614 138.32648471 -54.28125 140.13671875 C-53.6315625 140.75160156 -52.981875 141.36648438 -52.3125 142 C-51.33796875 142.93392578 -51.33796875 142.93392578 -50.34375 143.88671875 C-49.8384375 144.35722656 -49.333125 144.82773437 -48.8125 145.3125 C-48.05066406 144.9515625 -47.28882813 144.590625 -46.50390625 144.21875 C-37.51064949 140.17683685 -31.6485706 138.94199831 -22.1875 141.8125 C-15.37102598 144.54862314 -11.46379226 148.58234873 -8.5 155.27734375 C-7.51843896 157.92551363 -6.65489669 160.61683058 -5.8125 163.3125 C-1.8525 163.3125 2.1075 163.3125 6.1875 163.3125 C6.6 161.78625 7.0125 160.26 7.4375 158.6875 C9.7568083 151.07458524 13.24791175 146.20042999 20.1875 142.3125 C27.64863173 139.41094877 34.19275085 139.2873628 41.5625 142.3125 C42.78066406 142.869375 42.78066406 142.869375 44.0234375 143.4375 C46.26199855 144.49992519 46.26199855 144.49992519 49.1875 144.3125 C51.08489368 142.7790925 51.08489368 142.7790925 52.875 140.8125 C53.49761719 140.1628125 54.12023437 139.513125 54.76171875 138.84375 C55.23222656 138.3384375 55.70273437 137.833125 56.1875 137.3125 C55.91035156 136.78140625 55.63320313 136.2503125 55.34765625 135.703125 C54.98542969 134.99671875 54.62320313 134.2903125 54.25 133.5625 C53.71052734 132.51835937 53.71052734 132.51835937 53.16015625 131.453125 C50.28652291 125.12882351 50.39292796 118.29308613 52.3125 111.6875 C54.77302608 105.16027111 58.39599475 100.88719628 64.75 97.9375 C67.97098641 96.61695299 70.68609992 96.01278002 74.1875 95.3125 C74.1875 91.3525 74.1875 87.3925 74.1875 83.3125 C73.33027344 83.044375 72.47304688 82.77625 71.58984375 82.5 C62.90377578 79.52303871 57.23651106 76.50958746 53.10546875 68.11328125 C50.37972889 60.98155092 50.01211386 54.45853517 53.125 47.4375 C53.8125 46.0625 54.5 44.6875 55.1875 43.3125 C55.5175 42.3225 55.8475 41.3325 56.1875 40.3125 C53.5475 37.6725 50.9075 35.0325 48.1875 32.3125 C46.805625 33.1375 45.42375 33.9625 44 34.8125 C36.93677636 38.30914537 29.89477888 38.7823106 22.34765625 36.42578125 C15.76188429 33.44485289 10.79328204 29.48875444 8.16015625 22.640625 C7.41885895 20.22201444 6.79311387 17.76860069 6.1875 15.3125 C2.2275 15.3125 -1.7325 15.3125 -5.8125 15.3125 Z " fill="#f14f44" transform="translate(414.8125,325.6875)"/>
<path d="M0 0 C0.5770166 0.40831055 1.1540332 0.81662109 1.74853516 1.23730469 C3.37883331 2.41699396 4.96762174 3.65338569 6.5546875 4.890625 C9.27541767 6.80351394 9.27541767 6.80351394 11.8984375 5.71875 C12.72988281 5.29851562 13.56132812 4.87828125 14.41796875 4.4453125 C22.01337895 3.60894211 29.22539637 3.57001977 35.41796875 8.4453125 C40.37829387 13.15958975 44.08599925 17.54467089 44.68359375 24.56640625 C44.6784375 25.66082031 44.67328125 26.75523438 44.66796875 27.8828125 C44.67570312 29.52056641 44.67570312 29.52056641 44.68359375 31.19140625 C44.41796875 34.4453125 44.41796875 34.4453125 43.171875 37.52734375 C42.05797956 40.47533533 42.05797956 40.47533533 43.8046875 43.0234375 C44.56394531 43.90515625 45.32320312 44.786875 46.10546875 45.6953125 C46.96240523 46.75112672 47.81230488 47.81267906 48.65625 48.87890625 C49.1095166 49.45108887 49.5627832 50.02327148 50.02978516 50.61279297 C82.90882097 94.01589582 91.75931116 149.58105943 86.41796875 202.4453125 C87.35898437 201.78402344 88.3 201.12273437 89.26953125 200.44140625 C90.52672988 199.58763703 91.78457701 198.7348222 93.04296875 197.8828125 C93.66042969 197.44517578 94.27789062 197.00753906 94.9140625 196.55664062 C98.18142733 194.37266519 99.72806079 193.41387978 103.76171875 193.59765625 C107.90214481 194.91893927 107.90214481 194.91893927 109.41796875 197.4453125 C109.91796875 200.8203125 109.91796875 200.8203125 109.41796875 204.4453125 C105.7062716 208.7155317 101.26204688 211.98119857 96.73046875 215.3203125 C95.66807983 216.10486816 95.66807983 216.10486816 94.58422852 216.90527344 C93.17437474 217.94423142 91.76319459 218.98139233 90.35058594 220.01660156 C88.68236081 221.24985743 87.03621104 222.51287207 85.39453125 223.78125 C81.69543606 226.56979868 79.19661554 228.29213608 74.60546875 229.1953125 C67.74158602 227.58028127 63.85984742 220.15820363 59.98046875 214.6953125 C59.43326172 213.93476563 58.88605469 213.17421875 58.32226562 212.390625 C56.67193841 210.08602606 55.04026826 207.76971797 53.41796875 205.4453125 C52.84884766 204.63102783 52.27972656 203.81674316 51.69335938 202.9777832 C51.15001953 202.18460693 50.60667969 201.39143066 50.046875 200.57421875 C49.55646729 199.86080322 49.06605957 199.1473877 48.56079102 198.41235352 C46.90167131 195.55665443 46.67295756 193.6488606 47.41796875 190.4453125 C48.98046875 188.0703125 48.98046875 188.0703125 51.41796875 186.4453125 C54.85546875 185.8828125 54.85546875 185.8828125 58.41796875 186.4453125 C62.70623262 189.68765835 65.3386327 194.15759859 68.18359375 198.65234375 C68.79460937 199.53986328 68.79460937 199.53986328 69.41796875 200.4453125 C69.74796875 200.4453125 70.07796875 200.4453125 70.41796875 200.4453125 C75.54920261 149.7675547 66.34732196 99.9688781 35.65551758 58.14404297 C34.53903917 56.6115007 33.4950174 55.02680444 32.4609375 53.4375 C30.54406823 51.1319425 30.54406823 51.1319425 27.5 51.28125 C26.42105469 51.45914063 25.34210938 51.63703125 24.23046875 51.8203125 C16.33616171 52.73085407 10.92917521 51.65099763 4.60546875 46.7578125 C-1.02782493 41.43820571 -2.93228975 35.62445671 -3.6015625 28.03515625 C-3.57699241 24.77716285 -3.09724724 21.6585298 -2.58203125 18.4453125 C-44.38041638 -14.47967244 -96.82082614 -27.84976112 -149.45654297 -21.97460938 C-160.93820923 -20.4320015 -172.31502304 -17.6932204 -183.34301758 -14.16967773 C-187.03833181 -13.1546852 -189.75992502 -13.02750043 -193.58203125 -13.5546875 C-196.14453125 -15.6171875 -196.14453125 -15.6171875 -197.58203125 -18.5546875 C-197.83203125 -22.1171875 -197.83203125 -22.1171875 -196.58203125 -25.5546875 C-191.90365015 -28.85213956 -186.11814646 -30.56424931 -180.64453125 -32.0546875 C-179.50866577 -32.3655127 -179.50866577 -32.3655127 -178.34985352 -32.68261719 C-117.49654977 -48.53786201 -51.16651547 -36.58552553 0 0 Z M12.41796875 24.4453125 C11.26322263 26.88341405 11.26322263 26.88341405 11.41796875 29.4453125 C13.178557 33.55335176 15.30992949 35.68472425 19.41796875 37.4453125 C22.99315448 37.4453125 24.35985217 36.4892228 27.23046875 34.3203125 C29.67093419 31.56645713 29.67093419 31.56645713 30.04296875 27.9453125 C29.24680636 23.48680314 28.10983417 22.03747333 24.41796875 19.4453125 C18.52108263 18.39229712 15.98772818 19.7206309 12.41796875 24.4453125 Z " fill="#f14f44" transform="translate(379.58203125,83.5546875)"/>
<path d="M0 0 C4.60995648 3.9425217 7.94192307 8.82757354 11.4375 13.75 C11.98470703 14.51054687 12.53191406 15.27109375 13.09570312 16.0546875 C14.74603034 18.35928644 16.37770049 20.67559453 18 23 C18.85368164 24.221427 18.85368164 24.221427 19.72460938 25.4675293 C20.26794922 26.26070557 20.81128906 27.05388184 21.37109375 27.87109375 C21.86150146 28.58450928 22.35190918 29.2979248 22.85717773 30.03295898 C24.51629744 32.88865807 24.74501119 34.7964519 24 38 C21.85787666 41.25602748 20.49429347 41.8880845 16.6875 42.75 C10.16371434 41.42312834 7.14243872 35.80790392 3.625 30.5 C3.08875 29.675 2.5525 28.85 2 28 C1.67 28 1.34 28 1 28 C-6.96305245 76.52697772 6.38962772 128.45078196 34.40625 168.453125 C34.85379639 169.0630127 35.30134277 169.67290039 35.76245117 170.30126953 C36.87892958 171.8338118 37.92295135 173.41850806 38.95703125 175.0078125 C40.87390052 177.31337 40.87390052 177.31337 43.91796875 177.1640625 C44.99691406 176.98617187 46.07585937 176.80828125 47.1875 176.625 C55.08180704 175.71445843 60.48879354 176.79431487 66.8125 181.6875 C72.44579368 187.00710679 74.3502585 192.82085579 75.01953125 200.41015625 C74.99496116 203.66814965 74.51521599 206.7867827 74 210 C115.80958863 242.93381004 168.4014446 256.42600109 221.09375 250.46875 C230.77605821 249.18936995 240.09858795 246.79956733 249.44238281 243.98168945 C254.82657125 242.39690004 259.37895413 241.51284269 265 242 C267.5625 244.0625 267.5625 244.0625 269 247 C269.25 250.5625 269.25 250.5625 268 254 C262.06354055 257.52243528 255.97278321 259.37310921 249.3125 261.0625 C247.80236328 261.44764771 247.80236328 261.44764771 246.26171875 261.84057617 C191.12173831 275.43987116 132.71993133 265.91165475 84 237 C79.71465821 234.27763389 75.54720747 231.39783657 71.41796875 228.4453125 C70.84095215 228.03700195 70.26393555 227.62869141 69.66943359 227.20800781 C68.03913544 226.02831854 66.45034701 224.79192681 64.86328125 223.5546875 C62.14255108 221.64179856 62.14255108 221.64179856 59.51953125 222.7265625 C58.68808594 223.14679688 57.85664062 223.56703125 57 224 C49.4045898 224.83637039 42.19257238 224.87529273 36 220 C31.03967488 215.28572275 27.3319695 210.90064161 26.734375 203.87890625 C26.73953125 202.78449219 26.7446875 201.69007813 26.75 200.5625 C26.74226563 198.92474609 26.74226563 198.92474609 26.734375 197.25390625 C27 194 27 194 28.24609375 190.91796875 C29.35998919 187.96997717 29.35998919 187.96997717 27.61328125 185.421875 C26.85402344 184.54015625 26.09476562 183.6584375 25.3125 182.75 C24.45556352 181.69418578 23.60566387 180.63263344 22.76171875 179.56640625 C22.30845215 178.99422363 21.85518555 178.42204102 21.38818359 177.83251953 C-9.89614431 136.53456575 -21.75276184 80.0766093 -15.45703125 29.25390625 C-15.30621094 28.18011719 -15.15539062 27.10632813 -15 26 C-15.94101562 26.66128906 -16.88203125 27.32257813 -17.8515625 28.00390625 C-19.10876113 28.85767547 -20.36660826 29.7104903 -21.625 30.5625 C-22.24246094 31.00013672 -22.85992187 31.43777344 -23.49609375 31.88867188 C-26.76477789 34.07352917 -28.30829316 35.03232275 -32.34375 34.84375 C-36.54257794 33.51000465 -36.54257794 33.51000465 -38 31 C-38.75597791 27.56902335 -39.04744529 26.21798469 -38 23 C-35.60227694 20.25403621 -32.76958711 18.26246606 -29.76904297 16.21142578 C-27.72427523 14.81118599 -25.70815844 13.3738788 -23.69140625 11.93359375 C-20.05994136 9.34641324 -16.41142669 6.78522385 -12.74926758 4.24169922 C-11.37023801 3.26280956 -10.03044268 2.22864861 -8.70703125 1.17578125 C-5.77636733 -0.8428225 -3.42578605 -0.48081208 0 0 Z M43 195 C41.43064406 198.13871188 41.64798897 200.53855822 42 204 C44.59216083 207.69186542 46.04149064 208.82883761 50.5 209.625 C54.90769952 208.8379108 56.32447859 207.54113128 59 204 C60.15474612 201.56189845 60.15474612 201.56189845 60 199 C58.22368374 194.85526206 56.0468188 192.92223893 52 191 C47.96776894 191 46.19119553 192.64129026 43 195 Z " fill="#f14f44" transform="translate(61,200)"/>
<path d="M0 0 C10.09180757 8.63275105 16.32639609 17.96218647 18.53125 31.09375 C18.64716313 33.17479497 18.70616405 35.25951738 18.71875 37.34375 C18.73292969 38.40078125 18.74710937 39.4578125 18.76171875 40.546875 C18.16684585 49.70186806 15.12605254 56.27247912 10.53125 64.15625 C4.3606752 74.31079732 4.3606752 74.31079732 2.71875 85.84375 C3.62429179 88.35140419 4.87311814 90.02108517 6.53125 92.09375 C7.99356465 96.48069394 7.79671943 100.74729607 7.84375 105.34375 C7.88725586 106.73787109 7.88725586 106.73787109 7.93164062 108.16015625 C7.98881551 114.37902457 7.20158406 118.02774961 3.53125 123.09375 C0.11644231 125.74022596 -1.05415522 126.09375 -5.46875 126.09375 C-5.530625 126.795 -5.5925 127.49625 -5.65625 128.21875 C-6.87945362 132.54700895 -9.47111199 135.82425816 -13.28588867 138.24853516 C-17.85198499 140.01655053 -22.94818061 139.46322333 -27.78125 139.46875 C-28.89693359 139.49324219 -30.01261719 139.51773438 -31.16210938 139.54296875 C-37.81432322 139.56662808 -42.12562011 139.18965758 -47.46875 135.09375 C-49.54620104 131.81003706 -50.46875 129.97715615 -50.46875 126.09375 C-51.355625 126.01125 -52.2425 125.92875 -53.15625 125.84375 C-56.98479913 124.97690869 -58.7075527 123.8549473 -61.46875 121.09375 C-64.01286284 115.81635239 -63.83618685 110.90802203 -63.84375 105.15625 C-63.86824219 104.17978516 -63.89273438 103.20332031 -63.91796875 102.19726562 C-63.94253617 96.15777447 -63.27809508 92.99043688 -59.46875 88.09375 C-57.46421676 81.94839691 -60.00565996 76.79230647 -62.46875 71.09375 C-64.5100944 67.19330851 -66.68350813 63.36963196 -68.9387207 59.58911133 C-74.97580806 49.28314515 -76.06198598 38.30434678 -73.78125 26.55078125 C-71.13037696 17.12913665 -66.76509935 9.66046442 -59.46875 3.09375 C-58.581875 2.26875 -57.695 1.44375 -56.78125 0.59375 C-40.76420054 -12.42523635 -16.30235853 -12.58789709 0 0 Z M-53.296875 18.3046875 C-58.85920181 26.21615234 -60.95672509 34.47302558 -59.46875 44.09375 C-57.54636564 49.00774115 -55.05966058 53.51143531 -52.46875 58.09375 C-47.63527235 66.90773866 -44.72875579 75.36243097 -42.46875 85.09375 C-40.15875 85.09375 -37.84875 85.09375 -35.46875 85.09375 C-35.09524304 80.13242837 -34.82476785 75.17938722 -34.64477539 70.20727539 C-34.56974438 68.52125589 -34.46765233 66.83620009 -34.3371582 65.15356445 C-33.63992611 56.97325623 -33.63992611 56.97325623 -35.46875 49.09375 C-38.2110361 46.22664767 -41.47008685 44.50868704 -45.09254456 42.96351624 C-47.12280273 42.09350586 -47.12280273 42.09350586 -50.46875 40.09375 C-51.52809876 36.39924289 -51.91699463 34.25918603 -50.53125 30.65625 C-48.02048961 28.75415879 -46.026713 28.37895211 -42.89453125 28.46484375 C-39.64347185 29.307711 -37.46087032 31.04603129 -34.71875 32.96875 C-31.74612865 35.02573448 -31.74612865 35.02573448 -28.46875 36.09375 C-23.66015204 34.91230343 -19.01728405 32.64228405 -15.46875 29.09375 C-8.26729809 28.51298775 -8.26729809 28.51298775 -5.40625 30.59375 C-3.99682722 34.35221074 -4.74899758 37.16782771 -5.46875 41.09375 C-8.0062122 42.11843946 -10.51872679 43.10997981 -13.12255859 43.95556641 C-16.32001257 45.3161978 -18.17823404 46.45084696 -20.46875 49.09375 C-21.75255092 55.24821379 -21.41181756 61.22142308 -21.09375 67.46875 C-21.04355654 69.17565164 -20.99793477 70.88269423 -20.95703125 72.58984375 C-20.84713489 76.76130252 -20.67482411 80.92598033 -20.46875 85.09375 C-18.15875 85.09375 -15.84875 85.09375 -13.46875 85.09375 C-13.2728125 84.11277344 -13.076875 83.13179688 -12.875 82.12109375 C-10.4664452 70.95783255 -6.20544795 62.008471 -0.36328125 52.24658203 C3.75986057 45.24877681 4.65333636 38.78025546 3.0703125 30.7578125 C0.30486479 21.485429 -5.0296093 13.9338454 -13.46875 9.09375 C-27.73374191 2.17103334 -43.35077929 6.27586235 -53.296875 18.3046875 Z M-48.46875 99.09375 C-48.46875 103.05375 -48.46875 107.01375 -48.46875 111.09375 C-44.66015625 111.72851562 -44.66015625 111.72851562 -40.8515625 112.36328125 C-38.46875 113.09375 -38.46875 113.09375 -36.46875 116.09375 C-35.92958854 118.7539523 -35.73504902 121.38637663 -35.46875 124.09375 C-30.51875 124.09375 -25.56875 124.09375 -20.46875 124.09375 C-20.22125 122.485 -19.97375 120.87625 -19.71875 119.21875 C-19.296875 116.4765625 -19.296875 116.4765625 -18.46875 114.09375 C-15.1076586 111.75807631 -11.47595493 111.5561198 -7.46875 111.09375 C-7.46875 107.13375 -7.46875 103.17375 -7.46875 99.09375 C-20.99875 99.09375 -34.52875 99.09375 -48.46875 99.09375 Z " fill="#f14f44" transform="translate(115.46875,52.90625)"/>
<path d="M0 0 C7.09286285 6.42790695 12.01683413 14.81606751 14.875 23.875 C15.06707031 24.46152344 15.25914062 25.04804688 15.45703125 25.65234375 C17.99608758 39.15442833 15.52933501 52.51309647 7.875 63.875 C0.43390691 73.87396884 -9.81223078 80.46322046 -22.125 82.875 C-36.54099938 83.80654233 -48.46640546 82.12976061 -60.125 72.875 C-62.875 70.375 -62.875 70.375 -65.125 67.875 C-65.95 66.988125 -66.775 66.10125 -67.625 65.1875 C-75.74576559 55.19665275 -78.13472752 43.46504001 -77.125 30.875 C-74.9767724 17.48214353 -68.6562595 6.16119121 -57.6015625 -1.984375 C-38.74230909 -13.70612635 -18.19226883 -12.3707428 0 0 Z M-54.125 15.875 C-54.8675 16.6175 -55.61 17.36 -56.375 18.125 C-61.43135326 26.07069799 -63.32410502 34.11932799 -61.6875 43.33984375 C-59.31355923 52.96914102 -53.65121939 59.39114127 -45.43359375 64.68359375 C-37.83344101 68.6058384 -29.64253817 69.16732661 -21.33984375 67.22265625 C-12.19205391 63.92832081 -5.34332309 57.62229788 -1.125 48.875 C1.92334069 41.02874279 2.18113605 32.52819752 -0.6875 24.5625 C-5.30305732 14.62129961 -12.56586144 9.33467696 -22.625 5.5625 C-35.12964856 3.10622975 -45.30052283 6.71515077 -54.125 15.875 Z " fill="#f14f44" transform="translate(445.125,378.125)"/>
<path d="M0 0 C2.63638442 1.01937898 4.97293259 2.3948348 7.375 3.875 C8.00277344 4.23980469 8.63054688 4.60460938 9.27734375 4.98046875 C13.84744624 7.69489247 13.84744624 7.69489247 15 10 C15.35872645 13.87424565 15.56710729 16.14933906 13.375 19.4375 C10.24806307 21.49469535 8.7171048 21.38180415 5 21 C2.40996869 19.79598545 0.10821603 18.59626589 -2.3125 17.125 C-2.94478516 16.76019531 -3.57707031 16.39539063 -4.22851562 16.01953125 C-8.8534147 13.29317059 -8.8534147 13.29317059 -10 11 C-10.45371143 3.85404504 -10.45371143 3.85404504 -8.9375 1 C-5.86208021 -0.58731344 -3.42557223 -0.2718155 0 0 Z " fill="#f14f44" transform="translate(19,50)"/>
<path d="M0 0 C2.28277259 2.07042165 3.4456467 3.44940013 5 6 C5.69996094 7.08474609 5.69996094 7.08474609 6.4140625 8.19140625 C8.9876608 12.44000009 11.06618636 15.90599851 10 21 C8.4375 23.375 8.4375 23.375 6 25 C2.5 25.5 2.5 25.5 -1 25 C-5.80476384 20.86566833 -10.16847198 14.95807337 -11.48828125 8.67578125 C-11.58777283 5.84288939 -11.2723861 3.5447722 -10 1 C-6.68673722 -0.65663139 -3.54248078 -0.83516246 0 0 Z " fill="#f14f44" transform="translate(50,20)"/>
<path d="M0 0 C2.4375 1 2.4375 1 4 3 C4.52261132 6.24019018 4.7758631 7.93864868 4 11 C1.92957835 13.28277259 0.55059987 14.4456467 -2 16 C-3.08474609 16.69996094 -3.08474609 16.69996094 -4.19140625 17.4140625 C-8.44000009 19.9876608 -11.90599851 22.06618636 -17 21 C-19.375 19.4375 -19.375 19.4375 -21 17 C-21.5 13.5 -21.5 13.5 -21 10 C-15.84220232 3.99227178 -8.15193546 -1.46734838 0 0 Z " fill="#f14f44" transform="translate(162,50)"/>
<path d="M0 0 C2.5934217 2.10715513 2.93187427 3.39822275 3.3046875 6.69140625 C2.92026358 10.8658557 1.25692857 13.8047767 -0.875 17.3125 C-1.23980469 17.94478516 -1.60460937 18.57707031 -1.98046875 19.22851562 C-4.70682941 23.8534147 -4.70682941 23.8534147 -7 25 C-10.87424565 25.35872645 -13.14933906 25.56710729 -16.4375 23.375 C-18.49469535 20.24806307 -18.38180415 18.7171048 -18 15 C-16.79598545 12.40996869 -15.59626589 10.10821603 -14.125 7.6875 C-13.76019531 7.05521484 -13.39539063 6.42292969 -13.01953125 5.77148438 C-9.61524762 -0.00341859 -6.66566956 -0.96781705 0 0 Z " fill="#f14f44" transform="translate(133,20)"/>
<path d="M0 0 C3.11265055 0.81251531 4.17684292 1.8945642 6.03515625 4.53125 C6.64534721 7.52220456 6.63921924 10.42487229 6.59765625 13.46875 C6.62150391 14.26732422 6.64535156 15.06589844 6.66992188 15.88867188 C6.65913007 20.23057615 6.42784733 22.02336954 3.69140625 25.5625 C1.03515625 27.53125 1.03515625 27.53125 -2.02734375 28.09375 C-5.78320024 27.37454344 -6.72743565 26.63612776 -8.96484375 23.53125 C-9.53502289 20.35410409 -9.4775996 17.25025839 -9.40234375 14.03125 C-9.40943359 13.17660156 -9.41652344 12.32195313 -9.42382812 11.44140625 C-9.38728235 7.8374304 -9.30991114 5.22138478 -7.68359375 1.96875 C-5.30183977 -0.02326242 -3.02395973 0.0466121 0 0 Z " fill="#f14f44" transform="translate(88.96484375,8.46875)"/>
</svg>
