<?xml version="1.0" encoding="UTF-8"?>
<svg version="1.1" xmlns="http://www.w3.org/2000/svg" width="512" height="512">
<path d="M0 0 C2.27395666 0.0214134 4.54474387 0.00014457 6.81860352 -0.02539062 C16.32595302 -0.04274146 23.8813011 1.16937728 32.09399414 6.20898438 C39.73303468 14.06022049 43.00964283 22.84667388 44.34399414 33.52148438 C45.91270537 35.09019561 47.50593619 34.68525023 49.68383789 34.73242188 C51.03251953 34.77496094 51.03251953 34.77496094 52.40844727 34.81835938 C54.28848178 34.869482 56.16870988 34.91401581 58.04907227 34.95117188 C68.17641687 35.29520057 76.87732783 37.35925295 84.34399414 44.52148438 C92.34399414 53.74815104 92.34399414 53.74815104 92.34399414 59.52148438 C93.85496925 59.50816071 93.85496925 59.50816071 95.39646912 59.49456787 C104.91494728 59.41328779 114.43335453 59.353426 123.95210171 59.31423569 C128.8451687 59.29340977 133.7379543 59.26518386 138.63085938 59.21972656 C143.35765897 59.17609002 148.08418883 59.15230973 152.81117439 59.1419754 C154.60961207 59.13461589 156.4080359 59.1202447 158.20635796 59.09856415 C176.18931747 58.89049206 176.18931747 58.89049206 183.34399414 63.52148438 C184.25149414 64.05773437 185.15899414 64.59398438 186.09399414 65.14648438 C194.09521287 73.59221525 194.06308242 83.20268718 193.93774414 94.14257812 C193.93603012 95.73535573 193.93610168 97.32813615 193.93786621 98.9209137 C193.93622219 102.23848913 193.91768219 105.55538121 193.88598633 108.87280273 C193.84608326 113.12554856 193.84197278 117.37741129 193.84944916 121.6303091 C193.85251486 124.90999961 193.84041646 128.18949125 193.82331848 131.46913338 C193.81629164 133.03802304 193.81316357 134.60693521 193.81401062 136.17584038 C193.81221553 138.36105268 193.79086813 140.54519683 193.76391602 142.73022461 C193.75549683 143.97247299 193.74707764 145.21472137 193.73840332 146.49461365 C193.34399414 149.52148438 193.34399414 149.52148438 191.95251465 151.42103577 C189.82685045 152.87528157 188.40415208 152.92208595 185.84399414 152.89648438 C185.07055664 152.90421875 184.29711914 152.91195312 183.50024414 152.91992188 C180.80891638 152.42261131 179.96365385 151.70407459 178.34399414 149.52148438 C177.19280521 146.07010474 177.20695411 142.7664302 177.1862793 139.14819336 C177.17088608 137.21114784 177.17088608 137.21114784 177.15518188 135.23497009 C177.15174397 134.5477632 177.14830605 133.8605563 177.14476395 133.15252495 C177.13294035 130.99637156 177.1134816 128.84041536 177.09164429 126.68434143 C177.03012483 120.5559848 176.97590475 114.4276527 176.94262695 108.29907227 C176.92170509 104.54658678 176.88643089 100.79446842 176.84186935 97.04219246 C176.82769828 95.61288833 176.8189844 94.18351935 176.81581497 92.75414848 C176.81091723 90.75781346 176.78616897 88.76155683 176.76049805 86.76538086 C176.75241119 85.6293895 176.74432434 84.49339813 176.73599243 83.32298279 C176.57762947 80.51554533 176.57762947 80.51554533 174.94296265 78.69374084 C171.60706974 76.2480879 168.80526223 76.23941454 164.71899414 75.95898438 C163.53047852 75.87519531 162.34196289 75.79140625 161.11743164 75.70507812 C160.20219727 75.64449219 159.28696289 75.58390625 158.34399414 75.52148438 C158.34675952 76.11470836 158.3495249 76.70793234 158.35237408 77.3191328 C158.41864646 91.75805006 158.46828081 106.19695373 158.49943066 120.63598919 C158.51489516 127.61862846 158.53597659 134.60116616 158.5703125 141.58374023 C158.60342386 148.32050284 158.62084055 155.05713806 158.62862587 161.79398537 C158.63417506 164.36604284 158.64501106 166.93809444 158.66118431 169.51010704 C158.68291567 173.10867236 158.68596279 176.70679969 158.68457031 180.30541992 C158.70074905 181.90548386 158.70074905 181.90548386 158.71725464 183.53787231 C158.6790215 192.65038264 158.6790215 192.65038264 155.34399414 196.52148438 C152.25225663 198.06735313 149.74969862 197.81507959 146.34399414 197.52148438 C144.14581299 196.20733643 144.14581299 196.20733643 142.34399414 193.52148438 C141.75201278 189.76257776 141.83974206 186.03298871 141.88989258 182.23535156 C141.88930847 181.08384613 141.88872437 179.9323407 141.88812256 178.74594116 C141.89091124 174.93644154 141.92204203 171.12772246 141.95336914 167.31835938 C141.96082869 164.67849149 141.96652297 162.03861807 141.97052002 159.39874268 C141.9829485 153.15844776 142.01576804 146.91843341 142.05591798 140.678262 C142.10063994 133.57314459 142.12262374 126.46801372 142.14269972 119.36279058 C142.18450106 104.74885659 142.25785165 90.13522623 142.34399414 75.52148438 C126.17399414 75.52148438 110.00399414 75.52148438 93.34399414 75.52148438 C93.34399414 78.82148437 93.34399414 82.12148437 93.34399414 85.52148438 C91.27854694 91.282995 87.85083879 95.04970321 82.58592224 98.14076233 C76.63021252 100.56718939 70.04360279 99.94745469 63.72314453 99.92553711 C62.23756905 99.93124519 60.75199795 99.93821115 59.26643372 99.94633484 C55.24571456 99.96423298 51.22521404 99.96310423 47.20446706 99.95739245 C43.84220488 99.95429578 40.47998441 99.96039837 37.11772817 99.9664312 C29.18310491 99.9804638 21.24858934 99.97892567 13.31396484 99.9675293 C5.14036644 99.9560488 -3.03290382 99.97012537 -11.20645899 99.99692577 C-18.23598978 100.01910823 -25.26541776 100.02571444 -32.29498106 100.01984936 C-36.48818133 100.01648471 -40.68117127 100.01886197 -44.87434196 100.03610039 C-48.81845543 100.05160823 -52.76208409 100.04757191 -56.70617867 100.02879524 C-58.14928726 100.02511994 -59.59243208 100.02818688 -61.0355072 100.03868103 C-76.59168917 100.14312521 -76.59168917 100.14312521 -83.16430569 94.14502621 C-88.58727106 88.19892286 -88.65600586 83.47916155 -88.65600586 75.52148438 C-104.49600586 75.52148438 -120.33600586 75.52148438 -136.65600586 75.52148438 C-136.32600586 200.92148438 -135.99600586 326.32148438 -135.65600586 455.52148438 C-99.68600586 455.85148437 -63.71600586 456.18148438 -26.65600586 456.52148438 C-25.99600586 454.54148437 -25.33600586 452.56148438 -24.65600586 450.52148438 C-23.86476362 448.72335667 -23.04069972 446.93937408 -22.18725586 445.16992188 C-21.70377686 444.16348633 -21.22029785 443.15705078 -20.72216797 442.12011719 C-20.20533447 441.05631836 -19.68850098 439.99251953 -19.15600586 438.89648438 C-18.61919189 437.79143555 -18.08237793 436.68638672 -17.52929688 435.54785156 C-16.42981998 433.28742724 -15.32899184 431.02765967 -14.22680664 428.76855469 C-12.80045301 425.82007734 -11.40770723 422.8587633 -10.02709961 419.88867188 C-5.39571121 410.06066501 -0.39657577 402.04424033 6.96166992 394.06787109 C9.35363675 391.39201134 11.52642581 388.54857259 13.71899414 385.70898438 C17.69750078 380.59345528 21.74512017 375.54106746 25.84399414 370.52148438 C29.89391226 365.55923513 33.90184994 360.56979108 37.84399414 355.52148438 C44.44378372 347.07519628 51.2321367 338.78395919 58.01000977 330.48046875 C64.13409076 322.97469146 70.21823082 315.44523316 76.18041992 307.81005859 C80.22270323 302.64581158 84.36167008 297.5632054 88.50805664 292.48242188 C91.99929497 288.19696819 95.44218302 283.87818984 98.84399414 279.52148438 C103.32599524 273.7813777 107.90355971 268.12455191 112.50805664 262.48242188 C115.99929497 258.19696819 119.44218302 253.87818984 122.84399414 249.52148438 C127.32599524 243.7813777 131.90355971 238.12455191 136.50805664 232.48242188 C139.99929817 228.19696426 143.44201235 223.87805952 146.84399414 219.52148438 C153.44378372 211.07519628 160.2321367 202.78395919 167.01000977 194.48046875 C172.76039838 187.43269516 178.48800328 180.37241425 184.09399414 173.20898438 C184.99238042 172.067017 185.89081672 170.92508896 186.78930664 169.78320312 C188.44805874 167.67325547 190.08387365 165.55085037 191.71118164 163.41601562 C197.74778833 155.67704408 203.73052041 150.1779957 213.34399414 147.52148438 C223.84417715 146.45156051 232.74424274 147.66443714 241.15649414 154.27148438 C248.23619231 160.90035271 251.33782075 168.7062822 251.71899414 178.33398438 C251.41578079 190.5534826 244.79926173 198.42556744 237.34399414 207.52148438 C236.29130085 208.8191669 235.23923583 210.11735928 234.18774414 211.41601562 C232.5391503 213.44927313 230.88863917 215.48084792 229.23291016 217.50830078 C225.72102115 221.80901408 222.26034245 226.14458124 218.84399414 230.52148438 C214.36499391 236.25797764 209.79054514 241.9113075 205.1887207 247.54956055 C201.61015096 251.94187704 198.08267347 256.37000182 194.59399414 260.83398438 C190.71706087 265.7929809 186.77976405 270.69445883 182.78149414 275.55664062 C175.25994915 284.70544294 167.7979781 293.89668408 160.50854492 303.23168945 C156.46590099 308.39631672 152.32664836 313.47935878 148.17993164 318.56054688 C144.68869331 322.84600056 141.24580526 327.16477891 137.84399414 331.52148438 C133.36199304 337.26159105 128.78442857 342.91841684 124.17993164 348.56054688 C120.68869331 352.84600056 117.24580526 357.16477891 113.84399414 361.52148438 C109.36199304 367.26159105 104.78442857 372.91841684 100.17993164 378.56054688 C96.68869011 382.84600449 93.24597593 387.16490923 89.84399414 391.52148438 C83.24420456 399.96777247 76.45585158 408.25900956 69.67797852 416.5625 C68.02397497 418.58967474 66.37136174 420.61797604 64.71899414 422.64648438 C64.18064941 423.30567871 63.64230469 423.96487305 63.08764648 424.64404297 C60.47909786 427.84878609 57.90522781 431.07211019 55.39868164 434.35742188 C49.13108806 442.5614679 42.65134038 449.31069748 34.34399414 455.52148438 C48.14740301 455.54481495 61.95080884 455.56239792 75.75423336 455.57329655 C82.16298542 455.57852604 88.57172429 455.58562488 94.98046875 455.59692383 C101.15958855 455.60775037 107.33869562 455.61376071 113.51782417 455.61636162 C115.88105024 455.61821629 118.24427558 455.6218377 120.60749626 455.62721443 C123.90501311 455.63442176 127.20247661 455.63547545 130.5 455.63500977 C131.48758301 455.63860504 132.47516602 455.64220032 133.49267578 455.64590454 C134.83258827 455.64384254 134.83258827 455.64384254 136.1995697 455.64173889 C136.98032836 455.64266068 137.76108702 455.64358248 138.56550503 455.6445322 C140.36903629 455.7153138 140.36903629 455.7153138 141.34399414 454.52148438 C141.44534601 453.02515812 141.47751147 451.52408578 141.48202515 450.02433777 C141.49020515 448.56688393 141.49020515 448.56688393 141.49855042 447.07998657 C141.49959274 446.00518036 141.50063507 444.93037415 141.50170898 443.82299805 C141.5067897 442.69786301 141.51187042 441.57272797 141.5171051 440.41349792 C141.52783615 437.96076941 141.53644551 435.50803094 141.54322433 433.05528831 C141.5549697 429.17688678 141.57441115 425.29859881 141.59634399 421.42024231 C141.65810719 410.38981917 141.71227276 399.35940669 141.74536133 388.32885742 C141.76566255 381.59084655 141.80154379 374.85306806 141.84611893 368.11516762 C141.86031287 365.54232504 141.86900897 362.96944618 141.87217331 360.39656639 C141.87706421 356.80020997 141.90017665 353.20440025 141.92749023 349.6081543 C141.9244841 348.53942078 141.92147797 347.47068726 141.91838074 346.36956787 C141.92947372 345.3894725 141.94056671 344.40937714 141.95199585 343.39958191 C141.95696107 342.12392506 141.95696107 342.12392506 141.9620266 340.82249737 C142.4345744 337.97581927 143.37515819 336.60751529 145.34399414 334.52148438 C148.94449492 333.34740803 150.62328127 333.19388762 154.09399414 334.77148438 C156.34399414 336.52148438 156.34399414 336.52148438 158.34399414 339.52148438 C158.59846973 341.69551373 158.59846973 341.69551373 158.60469055 344.27018738 C158.61177536 345.24720612 158.61886017 346.22422485 158.62615967 347.23085022 C158.62368225 348.30153244 158.62120483 349.37221466 158.61865234 350.4753418 C158.62631874 352.16847504 158.62631874 352.16847504 158.63414001 353.89581299 C158.64807666 357.63957984 158.64707564 361.38316336 158.64477539 365.12695312 C158.64866112 367.72667001 158.65299554 370.32638626 158.65776062 372.92610168 C158.66523236 378.3828056 158.6650634 383.83943826 158.65966797 389.29614258 C158.65363945 395.59055403 158.66590915 401.88474132 158.68723804 408.17911452 C158.70702951 414.24409702 158.71002124 420.30897533 158.70650291 426.3739872 C158.70701587 428.94913572 158.71224885 431.52428783 158.72231483 434.09941673 C158.73468019 437.70667004 158.72788543 441.31340894 158.71630859 444.9206543 C158.72395233 445.98121536 158.73159607 447.04177643 158.73947144 448.13447571 C158.68996239 455.13007147 158.12022245 461.25829667 153.40649414 466.79882812 C152.72586914 467.34667969 152.04524414 467.89453125 151.34399414 468.45898438 C150.66336914 469.02488281 149.98274414 469.59078125 149.28149414 470.17382812 C145.89082414 472.53225787 143.07777548 472.63740846 139.07293701 472.59895325 C137.97982208 472.59140015 136.88670715 472.58384705 135.76046753 472.57606506 C134.56052155 472.56296799 133.36057556 472.54987091 132.12426758 472.53637695 C130.18404167 472.52198292 128.24381549 472.50761051 126.30358362 472.49404371 C124.92586773 472.48418646 123.54815628 472.47369125 122.17044973 472.46260512 C117.09549126 472.42217292 112.02072525 472.40149365 106.94561768 472.39274597 C105.83896181 472.39082055 105.83896181 472.39082055 104.70994925 472.38885623 C101.66502545 472.38397519 98.62010119 472.37979952 95.57517576 472.37606966 C86.95202869 472.36479878 78.32998896 472.3343277 69.70727539 472.24389648 C62.85309036 472.17213959 56.00021083 472.14352802 49.14566064 472.16405982 C45.52400952 472.17333694 41.90527217 472.1619301 38.28411102 472.09809303 C19.48912128 471.30011458 19.48912128 471.30011458 3.2668457 479.48120117 C2.17743872 480.55308146 1.10378338 481.64133431 0.05059814 482.74882507 C-3.96039978 486.85771234 -7.39831121 487.81578674 -13.03100586 487.89648438 C-19.70423739 487.76176234 -23.27105538 485.90643485 -28.03100586 481.14648438 C-29.85257568 478.20394851 -30.1792471 475.91488498 -30.65600586 472.52148438 C-31.2052346 472.52517155 -31.75446335 472.52885872 -32.32033539 472.53265762 C-45.70878495 472.62114777 -59.09718299 472.68700571 -72.48586273 472.72873306 C-78.96065686 472.74959185 -85.43523962 472.77787902 -91.90991211 472.82324219 C-98.16040622 472.86675977 -104.41069724 472.89063434 -110.66133118 472.90099335 C-113.04392187 472.90837401 -115.42650168 472.9227867 -117.80900574 472.9444046 C-121.15082668 472.97351618 -124.49181252 472.977437 -127.83374023 472.97558594 C-128.81485779 472.98996704 -129.79597534 473.00434814 -130.80682373 473.01916504 C-136.92068172 472.98261284 -141.56188538 472.03059506 -146.65600586 468.52148438 C-151.35329677 463.57696763 -152.90652719 459.8212025 -152.90210152 453.03222275 C-152.90440921 452.37927188 -152.90671689 451.726321 -152.90909451 451.05358374 C-152.91440607 448.8564011 -152.90540099 446.65950909 -152.89651489 444.46234131 C-152.89738672 442.87496505 -152.89913729 441.28758907 -152.90169322 439.70021462 C-152.90617517 435.331011 -152.89815146 430.96190502 -152.8881371 426.59271383 C-152.87951708 421.88381035 -152.88242173 417.17491257 -152.88394165 412.46600342 C-152.88499142 404.30509888 -152.87870521 396.14422628 -152.86746597 387.98332977 C-152.85122639 376.18398142 -152.84600455 364.38464854 -152.84348999 352.58529022 C-152.83911046 333.44259358 -152.82579437 314.29991396 -152.80688477 295.15722656 C-152.78853263 276.55957118 -152.77437287 257.96192042 -152.76586914 239.36425781 C-152.76508097 237.6453247 -152.76508097 237.6453247 -152.76427688 235.89166567 C-152.76166684 230.14286487 -152.75913942 224.39406404 -152.75665307 218.6452632 C-152.73591255 170.93732515 -152.70068001 123.22940559 -152.65600586 75.52148438 C-154.88580152 75.55467484 -157.11507381 75.62424441 -159.34350586 75.70898438 C-161.20555664 75.76119141 -161.20555664 75.76119141 -163.10522461 75.81445312 C-167.53937097 76.69737996 -169.02404926 77.87250753 -171.65600586 81.52148438 C-172.39785261 84.82484595 -172.39785261 84.82484595 -172.27683163 88.51305485 C-172.28320004 89.20817052 -172.28956846 89.90328619 -172.29612985 90.61946598 C-172.31140057 92.95457825 -172.29095421 95.28800712 -172.27073669 97.62306213 C-172.27434865 99.31157588 -172.28015107 101.00008614 -172.28795868 102.6885857 C-172.30304308 107.33300784 -172.28686768 111.97688014 -172.26565206 116.62125909 C-172.24819861 121.62812546 -172.25953463 126.63493602 -172.26731873 131.64181519 C-172.278003 141.45175976 -172.26202339 151.2614901 -172.23718046 161.07140202 C-172.20928631 172.4885924 -172.2079076 183.90573906 -172.20773745 195.32295787 C-172.20654946 215.68955368 -172.18155787 236.0560509 -172.14306641 256.42260742 C-172.10571499 276.19866112 -172.08447064 295.97464311 -172.08154297 315.75073242 C-172.08136016 316.96883838 -172.08117735 318.18694434 -172.080989 319.44196261 C-172.08081003 320.65793444 -172.08063105 321.87390627 -172.08044666 323.12672573 C-172.08008125 325.57484567 -172.07970888 328.02296561 -172.07932949 330.47108555 C-172.07914398 331.67832695 -172.07895846 332.88556836 -172.07876733 334.12939284 C-172.07519919 352.95756056 -172.05674941 371.78571717 -172.03683625 390.61387362 C-172.02980772 397.44486857 -172.02502843 404.27586089 -172.0218749 411.10685868 C-172.0168311 421.94076085 -172.00543423 432.77461304 -171.9805746 443.60848946 C-171.9693334 448.56080814 -171.9612393 453.51307759 -171.96170807 458.46541023 C-171.96201541 462.99468752 -171.95313002 467.52384818 -171.93674005 472.05309498 C-171.93240636 473.69566521 -171.93146289 475.33824843 -171.93416613 476.98082215 C-171.93731249 479.20593851 -171.92827562 481.43067779 -171.91606808 483.65575504 C-171.91411715 484.89397072 -171.91216623 486.13218639 -171.91015619 487.40792376 C-171.61632428 491.30172199 -171.61632428 491.30172199 -169.65600586 494.52148438 C-165.63448512 496.32336974 -162.10392398 496.77175607 -157.73110104 496.77316666 C-155.97785075 496.7809899 -155.97785075 496.7809899 -154.18918127 496.78897119 C-152.91438313 496.78450974 -151.639585 496.7800483 -150.32615662 496.77545166 C-148.95098155 496.77775699 -147.57580771 496.78093401 -146.20063645 496.78490615 C-142.42708794 496.79325271 -138.65364065 496.78912952 -134.88009179 496.78293371 C-130.80848196 496.77840971 -126.73688957 496.7853927 -122.6652832 496.79089355 C-114.69138666 496.7997895 -106.71752776 496.79786471 -98.74362975 496.79206827 C-92.2640256 496.7875529 -85.78443201 496.78693834 -79.30482674 496.78911591 C-78.382888 496.78942237 -77.46094926 496.78972884 -76.51107298 496.79004459 C-74.63822984 496.79068404 -72.7653867 496.79133246 -70.89254356 496.79198977 C-53.32886501 496.79769358 -35.76520732 496.79113422 -18.20153219 496.78038904 C-3.12653184 496.771452 11.94843771 496.77300674 27.0234375 496.78222656 C44.5254967 496.79292574 62.0275376 496.79714581 79.52959961 496.79100204 C81.39527666 496.79036493 83.26095372 496.78973619 85.12663078 496.78911591 C86.04460602 496.78880735 86.96258125 496.7884988 87.90837391 496.7881809 C94.38175144 496.78645302 100.85511738 496.78937105 107.32849312 496.79407501 C115.21504585 496.79967986 123.10155876 496.79817568 130.98810691 496.78751352 C135.01299494 496.78225171 139.03781653 496.78020876 143.06270409 496.78681183 C146.7457313 496.79276276 150.42863037 496.78951039 154.11164593 496.77885672 C156.07806839 496.77555746 158.04449972 496.7821013 160.01091295 496.78897119 C161.17713873 496.78375569 162.34336451 496.7785402 163.54493046 496.77316666 C164.55135438 496.77284195 165.5577783 496.77251725 166.59469992 496.7721827 C170.67428508 496.40017989 173.43845601 495.4270225 176.34399414 492.52148438 C176.54280281 489.93931796 176.61594376 487.46390934 176.60227966 484.88043213 C176.60779322 483.68365455 176.60779322 483.68365455 176.61341816 482.46269965 C176.62344285 479.77422275 176.6192385 477.08595088 176.61523438 474.39746094 C176.61961894 472.47588886 176.6249201 470.55431869 176.631073 468.63275146 C176.64259647 464.48682746 176.64803414 460.34095472 176.64895439 456.19501495 C176.65089059 449.64019597 176.66891966 443.08548335 176.68971252 436.53070068 C176.73896717 420.24551305 176.76978296 403.96029639 176.79101562 387.67504883 C176.80753175 375.02836004 176.8303356 362.38176192 176.87403637 349.73513389 C176.89583511 343.2187192 176.90386841 336.70247664 176.90164363 330.186028 C176.9033099 326.1300433 176.91735601 322.07417099 176.93485641 318.01822662 C176.94045809 316.13728655 176.94093917 314.25632319 176.93591881 312.37538147 C176.92978209 309.80682076 176.94200067 307.23897012 176.95872498 304.67047119 C176.95251316 303.92668661 176.94630134 303.18290204 176.93990129 302.41657853 C176.99544381 297.73267267 177.85266331 294.49472107 180.34399414 290.52148438 C183.43573166 288.97561562 185.93828966 289.22788916 189.34399414 289.52148438 C191.53881073 291.03502274 191.53881073 291.03502274 193.34399414 293.52148438 C193.73684327 296.35025471 193.88474481 298.78968807 193.85192871 301.61737061 C193.86128865 302.85134673 193.86128865 302.85134673 193.87083769 304.11025167 C193.88681147 306.8709919 193.87414631 309.63085454 193.86157227 312.39160156 C193.86699161 314.36933915 193.87411321 316.3470727 193.8828125 318.32479858 C193.90107583 323.7010608 193.89396458 329.07701657 193.88129616 334.45328426 C193.87117844 340.07899243 193.88055895 345.70467412 193.88684082 351.3303833 C193.89412319 360.78280349 193.88451652 370.23509877 193.86547852 379.6875 C193.84373387 390.60974626 193.85074135 401.53169358 193.87278414 412.45393252 C193.89095134 421.83158128 193.89348922 431.20914014 193.88302946 440.58680081 C193.87679858 446.18735986 193.87594733 451.78777856 193.88917542 457.38832855 C193.90075151 462.65792913 193.89267575 467.92714566 193.86959839 473.19670486 C193.86431965 475.12841022 193.86581075 477.06014802 193.87464905 478.99184036 C193.88562188 481.63421426 193.87182015 484.27536694 193.85192871 486.91766357 C193.86531304 488.05757409 193.86531304 488.05757409 193.87896776 489.22051311 C193.78443928 495.71913786 191.67019046 500.86693827 187.37915039 505.76367188 C186.72817383 506.3025 186.07719727 506.84132813 185.40649414 507.39648438 C184.7580957 507.95078125 184.10969727 508.50507813 183.44165039 509.07617188 C179.16784918 512.02087662 175.46468579 512.7719892 170.31904984 512.78154659 C169.10242322 512.78861218 167.88579661 512.79567778 166.63230252 512.80295748 C165.28548732 512.80070621 163.93867244 512.79825972 162.59185791 512.79563904 C161.1585235 512.80009194 159.72519155 512.80540616 158.2918632 512.81150776 C154.35276881 512.82569196 150.41375331 512.82735098 146.47463703 512.82691085 C142.22637105 512.82855869 137.9781376 512.84162458 133.72988892 512.85310364 C124.44062122 512.87595521 115.15137638 512.88387438 105.86208439 512.88893008 C100.06162488 512.89218685 94.26117201 512.8987092 88.46071625 512.90593147 C72.40012958 512.92549743 56.33954909 512.94190172 40.27894974 512.94480801 C39.25116069 512.94499558 38.22337163 512.94518315 37.16443746 512.9453764 C35.08086888 512.94574265 32.9973003 512.94610635 30.91373172 512.94646751 C29.87944879 512.94665032 28.84516586 512.94683313 27.77954102 512.94702148 C26.74399538 512.94720203 25.70844974 512.94738258 24.64152393 512.9475686 C7.86076161 512.95111049 -8.9198724 512.97813382 -25.70059022 513.01551937 C-42.93009793 513.05359755 -60.15954196 513.07296545 -77.38909268 513.07326752 C-87.06248611 513.07385219 -96.73572647 513.08235055 -106.40908051 513.11126518 C-114.64583003 513.13577247 -122.88237067 513.14306636 -131.11914679 513.12801766 C-135.32085227 513.12084612 -139.52214519 513.12171644 -143.72380447 513.14442825 C-147.57320124 513.16503639 -151.42186877 513.16240145 -155.27125779 513.14155341 C-156.66090135 513.13806196 -158.05059772 513.14295407 -159.44017205 513.15725785 C-168.88799739 513.24821244 -175.79008775 512.17233428 -182.77709961 505.49414062 C-183.21151367 504.86378906 -183.64592773 504.2334375 -184.09350586 503.58398438 C-184.5459668 502.95621094 -184.99842773 502.3284375 -185.46459961 501.68164062 C-188.25131613 496.62900379 -188.90716175 492.04997471 -188.91606808 486.32992172 C-188.91987375 485.62531954 -188.92367942 484.92071736 -188.92760041 484.1947636 C-188.93790643 481.83384874 -188.93401189 479.47317474 -188.93016052 477.11224365 C-188.93461346 475.40239771 -188.93992769 473.69255384 -188.94602925 471.98271298 C-188.96021289 467.28390618 -188.96187247 462.58516552 -188.96143234 457.88634038 C-188.96308021 452.81870864 -188.97614613 447.75110417 -188.98762512 442.68348694 C-189.01047596 431.60294605 -189.01839572 420.52242431 -189.02345157 409.44186306 C-189.02670827 402.52326357 -189.03323057 395.60466965 -189.04045296 388.6860733 C-189.06001844 369.53037571 -189.07642314 350.37468329 -189.07932949 331.21897507 C-189.07951706 329.99314274 -189.07970463 328.76731042 -189.07989788 327.50433166 C-189.08026413 325.01927678 -189.08062783 322.53422189 -189.080989 320.04916701 C-189.08117181 318.8155835 -189.08135462 317.58199999 -189.08154297 316.31103516 C-189.08172352 315.07594614 -189.08190407 313.84085712 -189.08209009 312.56834117 C-189.08563235 292.55183082 -189.11265826 272.53542801 -189.15004086 252.51895496 C-189.18811399 231.96830544 -189.20748689 211.41770929 -189.207789 190.86702371 C-189.20837377 179.32852915 -189.21687844 167.7901629 -189.24578667 156.25170135 C-189.27028711 146.42740183 -189.27759236 136.60327742 -189.26253914 126.77895561 C-189.25536502 121.76703741 -189.25624957 116.75546511 -189.27894974 111.74358559 C-189.29954331 107.15281317 -189.29693579 102.56265248 -189.27607489 97.97188666 C-189.27258075 96.31375181 -189.27748684 94.65557279 -189.29177933 92.99749586 C-189.37197679 83.0503559 -188.98061407 74.37263732 -181.92989153 66.62467647 C-175.85173975 60.72159718 -168.51063777 59.07296442 -160.31225586 59.08911133 C-159.52104843 59.07891968 -158.729841 59.06872803 -157.91465759 59.05822754 C-155.32836641 59.02830128 -152.74244681 59.01886315 -150.15600586 59.00976562 C-148.35138742 58.99290378 -146.54678062 58.97475153 -144.7421875 58.95536804 C-140.0142175 58.9080253 -135.2862947 58.87811447 -130.5581665 58.85192871 C-125.72479942 58.82204354 -120.89159471 58.77554066 -116.05834961 58.73046875 C-106.59098691 58.64461472 -97.12359062 58.57719011 -87.65600586 58.52148438 C-87.314646 57.83151367 -86.97328613 57.14154297 -86.62158203 56.43066406 C-85.94832886 55.07569824 -85.94832886 55.07569824 -85.26147461 53.69335938 C-84.81698975 52.79713867 -84.37250488 51.90091797 -83.91455078 50.97753906 C-80.00005811 43.33839333 -73.50747905 39.31308171 -65.57788086 36.38476562 C-60.40066222 35.01041358 -55.04268028 35.05511899 -49.71850586 34.89648438 C-48.6530957 34.8578125 -47.58768555 34.81914063 -46.48999023 34.77929688 C-43.87882852 34.68562291 -41.26766282 34.59990102 -38.65600586 34.52148438 C-38.61354736 33.79993164 -38.57108887 33.07837891 -38.52734375 32.33496094 C-37.82096861 22.55840234 -35.19544275 14.4028973 -27.84350586 7.52148438 C-26.07397461 6.02148438 -26.07397461 6.02148438 -23.65600586 4.52148438 C-22.82854858 3.99844727 -22.82854858 3.99844727 -21.984375 3.46484375 C-15.01134477 -0.3095257 -7.71250086 -0.08636805 0 0 Z M-18.59350586 21.20898438 C-20.95754933 25.00578147 -21.84804465 28.17971303 -22.65600586 32.52148438 C-23.83581635 38.38745805 -25.04524562 43.94228987 -30.22924805 47.64526367 C-36.19072309 50.91179299 -41.57992465 51.07967777 -48.28100586 51.08398438 C-58.73397501 51.00248937 -58.73397501 51.00248937 -67.51928711 56.24023438 C-68.23665039 57.12195312 -68.23665039 57.12195312 -68.96850586 58.02148438 C-69.70520508 58.90320312 -69.70520508 58.90320312 -70.45678711 59.80273438 C-73.29336869 63.86819332 -72.83957003 68.34131238 -72.84350586 73.08398438 C-72.85575195 73.86451172 -72.86799805 74.64503906 -72.88061523 75.44921875 C-72.88585803 77.47468473 -72.77834914 79.4997099 -72.65600586 81.52148438 C-69.97005616 84.20743407 -68.64237059 83.77281009 -64.88623047 83.77545166 C-63.04374222 83.78391113 -63.04374222 83.78391113 -61.16403198 83.7925415 C-59.79547061 83.78865255 -58.42690981 83.78455619 -57.05834961 83.78027344 C-55.62289248 83.78298228 -54.18743674 83.78654261 -52.75198364 83.79089355 C-48.84709915 83.80003258 -44.94232002 83.79646711 -41.03743362 83.79013538 C-36.9570817 83.7850832 -32.87673899 83.78976465 -28.79638672 83.79290771 C-21.94326146 83.79654965 -15.09017927 83.79174232 -8.23706055 83.78222656 C-0.30608768 83.77134157 7.62478238 83.77486698 15.55575275 83.78587937 C22.35662627 83.7949458 29.15746877 83.79624069 35.95834637 83.79100204 C40.02393467 83.78787877 44.08947459 83.78748271 48.15505981 83.79407501 C51.97667394 83.7998385 55.79815508 83.79587 59.61975479 83.7842865 C61.02506413 83.78163455 62.43038459 83.78241408 63.83568954 83.78681183 C65.74852864 83.79224742 67.66139209 83.78423408 69.57421875 83.77545166 C71.18253822 83.77432058 71.18253822 83.77432058 72.823349 83.77316666 C75.5145282 83.77318631 75.5145282 83.77318631 77.34399414 81.52148438 C77.57085727 78.56342486 77.66819428 75.72928001 77.65649414 72.77148438 C77.67260742 71.97226563 77.6887207 71.17304687 77.70532227 70.34960938 C77.70945729 65.3214152 77.11364607 61.87853872 74.34399414 57.52148438 C69.83658365 53.25130601 65.52696812 51.29183066 59.32446289 51.24804688 C58.3840918 51.22742187 57.4437207 51.20679688 56.47485352 51.18554688 C54.52441926 51.15966188 52.57386888 51.14133931 50.62329102 51.13085938 C43.07034719 50.94525803 37.35214225 49.60879427 31.96899414 44.08398438 C29.29390942 39.86558154 28.18735433 36.077025 27.59399414 31.14648438 C26.60269835 25.53166392 24.91017024 22.0132661 20.34399414 18.52148438 C10.1916598 12.24099373 -9.85162077 13.21108951 -18.59350586 21.20898438 Z M205.15649414 172.33398438 C204.46245483 173.17981079 204.46245483 173.17981079 203.75439453 174.04272461 C202.27163365 175.85915039 200.80677747 177.68894457 199.34399414 179.52148438 C198.83513672 180.15248047 198.3262793 180.78347656 197.80200195 181.43359375 C196.2884917 183.31183987 194.78283063 185.19599684 193.28149414 187.08398438 C192.81654541 187.66704346 192.35159668 188.25010254 191.87255859 188.85083008 C189.68411945 191.6403681 187.8632549 194.32496663 186.34399414 197.52148438 C188.8619303 199.58754132 191.38386948 201.64865569 193.90649414 203.70898438 C194.6109668 204.28712891 195.31543945 204.86527344 196.04125977 205.4609375 C200.36755275 208.98975712 204.765237 212.32658288 209.34399414 215.52148438 C214.22169173 210.94864288 218.21810591 205.76883887 222.34399414 200.52148438 C223.30652073 199.32535433 224.27011709 198.13008457 225.23461914 196.93554688 C226.22960638 195.69351602 227.2243994 194.45132956 228.21899414 193.20898438 C228.69546387 192.6225415 229.17193359 192.03609863 229.6628418 191.43188477 C233.32626768 186.82532718 235.88242725 183.08698398 235.21899414 177.08398438 C234.58759915 172.72227874 233.30214897 169.87938986 230.34399414 166.52148438 C220.74299638 159.97534954 211.90345543 163.88231524 205.15649414 172.33398438 Z M175.34399414 209.52148438 C173.72449876 211.499494 172.15209767 213.49573428 170.59399414 215.52148438 C166.40880285 220.90957171 162.16133944 226.23872197 157.84399414 231.52148438 C153.79386252 236.48355039 149.78599258 241.47307386 145.84399414 246.52148438 C140.75801569 253.03377855 135.55303275 259.44514807 130.33227539 265.84960938 C127.98677881 268.72760892 125.65797867 271.61804273 123.34399414 274.52148438 C120.49176862 278.10027682 117.61046938 281.65411155 114.71899414 285.20117188 C109.58671962 291.49771238 104.50813947 297.82891281 99.50878906 304.23144531 C95.46597627 309.39608574 91.32672135 314.47926934 87.17993164 319.56054688 C83.68869331 323.84600056 80.24580526 328.16477891 76.84399414 332.52148438 C72.36199304 338.26159105 67.78442857 343.91841684 63.17993164 349.56054688 C59.68869331 353.84600056 56.24580526 358.16477891 52.84399414 362.52148438 C48.90204294 367.5699482 44.89364845 372.55902252 40.84399414 377.52148438 C34.91897108 384.78450067 29.10608926 392.12878047 23.34399414 399.52148438 C22.60536133 400.46894531 21.86672852 401.41640625 21.10571289 402.39257812 C19.51650199 404.4340294 17.92895003 406.476729 16.34399414 408.52148438 C20.44455036 412.79892733 24.8686225 416.54258569 29.46899414 420.27148438 C30.18442383 420.86058594 30.89985352 421.4496875 31.63696289 422.05664062 C32.32661133 422.61738281 33.01625977 423.178125 33.72680664 423.75585938 C34.34958496 424.26342773 34.97236328 424.77099609 35.61401367 425.29394531 C37.43842787 426.71468012 37.43842787 426.71468012 40.34399414 427.52148438 C46.5693305 419.90064336 52.78813809 412.27811965 58.84399414 404.52148438 C63.32596038 398.78135035 67.90356018 393.12455135 72.50805664 387.48242188 C75.99929497 383.19696819 79.44218302 378.87818984 82.84399414 374.52148438 C87.32662609 368.78056977 91.90443438 363.1226066 96.51025391 357.48022461 C99.98292896 353.21837528 103.4022572 348.92017336 106.78149414 344.58398438 C111.46401564 338.57933915 116.29387279 332.70488315 121.15014648 326.84033203 C125.25528819 321.87213288 129.26933231 316.8429531 133.23071289 311.75976562 C136.71253391 307.30059134 140.26647486 302.90414206 143.84399414 298.52148438 C147.89381481 293.55916193 151.90204608 288.56994418 155.84399414 283.52148438 C160.32599524 277.7813777 164.90355971 272.12455191 169.50805664 266.48242188 C173.44961715 261.64420305 177.32301758 256.75772128 181.15795898 251.8347168 C183.69410655 248.58913461 186.26809369 245.37981198 188.88305664 242.19726562 C189.47924805 241.47087891 190.07543945 240.74449219 190.68969727 239.99609375 C191.85384475 238.58148205 193.02167502 237.16989105 194.19360352 235.76171875 C194.98347656 234.80168945 194.98347656 234.80168945 195.78930664 233.82226562 C196.25868652 233.25677002 196.72806641 232.69127441 197.21166992 232.10864258 C198.54733319 230.40070589 198.54733319 230.40070589 199.34399414 227.52148438 C195.27777394 224.32287872 191.20971949 221.12663229 187.13989258 217.93261719 C185.57323264 216.70160924 184.00917006 215.46729717 182.44555664 214.23242188 C181.64891602 213.6059375 180.85227539 212.97945312 180.03149414 212.33398438 C178.98541992 211.50833984 178.98541992 211.50833984 177.91821289 210.66601562 C176.53357507 209.42347565 176.53357507 209.42347565 175.34399414 209.52148438 Z M7.34399414 422.52148438 C4.03617422 429.01063947 0.74387874 435.50749377 -2.53759766 442.01000977 C-3.65640621 444.22243946 -4.77879348 446.43306313 -5.90478516 448.6418457 C-7.52004905 451.81191667 -9.12244895 454.98820063 -10.72241211 458.16601562 C-11.48479942 459.65208061 -11.48479942 459.65208061 -12.2625885 461.16816711 C-12.72314133 462.08889511 -13.18369415 463.00962311 -13.65820312 463.95825195 C-14.06901627 464.76877518 -14.47982941 465.5792984 -14.90309143 466.41438293 C-15.95128044 468.66400553 -15.95128044 468.66400553 -14.65600586 471.52148438 C-9.4066287 471.13738361 -6.69093194 468.33762114 -2.96850586 464.95898438 C-1.71695052 463.8549297 -0.46434235 462.75206739 0.78930664 461.65039062 C1.39806641 461.11172363 2.00682617 460.57305664 2.6340332 460.01806641 C10.52109534 453.11519792 19.02182742 446.88702882 27.34399414 440.52148438 C25.92549991 437.1807316 24.26868726 435.34865918 21.46508789 433.06835938 C20.70905273 432.44960938 19.95301758 431.83085937 19.17407227 431.19335938 C18.38452148 430.55914062 17.5949707 429.92492187 16.78149414 429.27148438 C15.59136719 428.29695313 15.59136719 428.29695313 14.37719727 427.30273438 C11.18297906 424.16990339 11.18297906 424.16990339 7.34399414 422.52148438 Z " fill="#f14f44" transform="translate(224.656005859375,-0.521484375)"/>
<path d="M0 0 C0.93790878 -0.0071553 1.87581757 -0.01431061 2.84214783 -0.02168274 C3.87438477 -0.02437164 4.9066217 -0.02706055 5.97013855 -0.02983093 C7.05479904 -0.03640213 8.13945953 -0.04297333 9.25698853 -0.04974365 C12.85823123 -0.06950783 16.45943219 -0.08114567 20.06071472 -0.09111023 C21.2882868 -0.09518576 22.51585888 -0.09926128 23.78063011 -0.10346031 C29.60640639 -0.12217957 35.43216618 -0.1367429 41.25796682 -0.14507228 C47.98139553 -0.15484387 54.70449495 -0.18116083 61.42780763 -0.22157317 C67.25197531 -0.25537871 73.07603254 -0.26721784 78.90028954 -0.27127647 C81.37745587 -0.27615622 83.85461833 -0.28780938 86.33172035 -0.30631447 C89.79609707 -0.3305879 93.25960958 -0.32976213 96.7240448 -0.32279968 C97.75020905 -0.33560974 98.77637329 -0.3484198 99.83363342 -0.36161804 C104.26978771 -0.32906851 106.82059311 -0.29061603 110.67575073 2.05154419 C112.67778686 4.30063125 113.22417233 5.17814165 113.16618347 8.14717102 C113.18551941 9.13717102 113.18551941 9.13717102 113.20524597 10.14717102 C112.11426855 13.43293833 110.49311171 14.35075337 107.54118347 16.14717102 C103.94802929 16.7411603 100.39073535 16.68323176 96.75578308 16.64888 C95.12572578 16.65698448 95.12572578 16.65698448 93.46273804 16.66525269 C89.8727236 16.67775428 86.28350877 16.66123956 82.69352722 16.64326477 C80.1991878 16.64341971 77.70484814 16.6449079 75.21051025 16.64767456 C69.31502308 16.64923647 63.41982856 16.63086229 57.52440506 16.60487276 C52.15474503 16.5830513 46.78534685 16.58667333 41.41566461 16.59711212 C35.60052095 16.60789648 29.78551746 16.60159733 23.9703846 16.58755684 C21.49800076 16.58303584 19.02560562 16.58271117 16.55322075 16.58662224 C13.10097324 16.58952712 9.64935713 16.57306166 6.19718933 16.55122375 C5.17214294 16.5557254 4.14709656 16.56022705 3.09098816 16.56486511 C1.68000099 16.55000816 1.68000099 16.55000816 0.24050903 16.53485107 C-0.57523622 16.53242118 -1.39098146 16.52999128 -2.23144627 16.52748775 C-5.04395922 16.04725968 -6.40648062 15.10859547 -8.45881653 13.14717102 C-9.56255031 9.17372941 -9.87425235 7.0571733 -8.14631653 3.27217102 C-5.60092978 0.06686918 -3.92056309 0.02049252 0 0 Z " fill="#f14f44
" transform="translate(222.4588165283203,247.8528289794922)"/>
<path d="M0 0 C1.64468765 -0.01073296 1.64468765 -0.01073296 3.32260132 -0.02168274 C6.94522824 -0.03858524 10.56662054 -0.01915767 14.18920898 0.00219727 C16.70596926 0.00136878 19.22272949 -0.00108983 21.73948669 -0.00511169 C27.01282067 -0.00797069 32.2858344 0.00621392 37.55908203 0.03417969 C43.65264027 0.06624698 49.74555864 0.0662085 55.83916241 0.04896492 C61.70666342 0.03309402 67.57392851 0.03993342 73.4414196 0.05690193 C75.9361309 0.06209089 78.43086063 0.06159334 80.92556953 0.05535698 C84.4091187 0.04991737 87.89157526 0.07024096 91.375 0.09765625 C92.40939713 0.09113037 93.44379425 0.08460449 94.50953674 0.07788086 C101.4557279 0.17101024 101.4557279 0.17101024 104.75938416 2.44960022 C106.80734988 5.7263958 106.71986957 7.84968024 106.12280273 11.63110352 C104.09053073 14.5516727 102.48072389 16.35202359 98.90473938 17.08695984 C96.07338129 17.2698635 93.28219378 17.28351749 90.44506836 17.24633789 C88.83205086 17.25466141 88.83205086 17.25466141 87.18644714 17.26315308 C83.63352841 17.27495926 80.08188219 17.2506625 76.52905273 17.22485352 C74.05953021 17.22314263 71.59000588 17.22320787 69.1204834 17.22497559 C63.94546123 17.22332178 58.77087195 17.20461149 53.59594727 17.1730957 C46.96121028 17.13341852 40.32704044 17.12905021 33.69220734 17.13655853 C28.59298503 17.1396275 23.49389033 17.12751019 18.3946991 17.11042786 C15.94826559 17.10339458 13.50181762 17.10027372 11.05537415 17.10112 C7.63682907 17.09932311 4.21896458 17.07794933 0.80053711 17.05102539 C-0.21156326 17.05395599 -1.22366364 17.0568866 -2.26643372 17.05990601 C-10.93236683 16.9545562 -10.93236683 16.9545562 -14.87719727 13.63110352 C-15.76000977 11.76391602 -15.76000977 11.76391602 -16.00219727 9.75610352 C-16.16075195 8.7699707 -16.16075195 8.7699707 -16.32250977 7.76391602 C-14.57550774 -0.6033042 -6.78731452 -0.07687013 0 0 Z " fill="#f14f44" transform="translate(228.877197265625,140.368896484375)"/>
<path d="M0 0 C0.92949463 -0.00860046 1.85898926 -0.01720093 2.81665039 -0.02606201 C3.83953659 -0.03032196 4.86242279 -0.03458191 5.91630554 -0.03897095 C6.99121246 -0.04714844 8.06611938 -0.05532593 9.17359924 -0.06375122 C12.74236996 -0.08863067 16.31110087 -0.10512692 19.87992859 -0.11953735 C21.70473786 -0.12752287 21.70473786 -0.12752287 23.56641197 -0.13566971 C30.00416306 -0.16241108 36.44189468 -0.18178374 42.87968445 -0.19619751 C49.53813559 -0.21162753 56.19602538 -0.257643 62.85430622 -0.30856895 C67.96635526 -0.34217887 73.07828612 -0.35376809 78.19043541 -0.35942459 C80.64528876 -0.36615325 83.1001339 -0.38141685 85.55488014 -0.4053154 C88.9882682 -0.43683701 92.42031154 -0.43702269 95.85380554 -0.42959595 C96.87061905 -0.44600128 97.88743256 -0.46240662 98.93505859 -0.47930908 C103.6183636 -0.43777402 105.85739127 -0.37876762 109.71432495 2.4677124 C112.16022857 5.99091996 112.26707976 7.94986866 111.57914734 12.15390015 C110.21572876 14.33540344 110.21572876 14.33540344 107.57914734 16.15390015 C104.00229828 16.76692477 100.45289363 16.7101953 96.8313446 16.68734741 C95.18928543 16.70027077 95.18928543 16.70027077 93.51405334 16.7134552 C89.8909804 16.73618053 86.26867685 16.72936361 82.64555359 16.7203064 C80.12975839 16.7255392 77.61396517 16.73181442 75.09817505 16.73908997 C69.82312275 16.74950645 64.54827082 16.74524337 59.27323914 16.73031616 C53.18022288 16.7133969 47.08792315 16.72922618 40.99498516 16.76153904 C35.12803233 16.79147187 29.26135682 16.79341614 23.39434624 16.78404045 C20.90044663 16.78321949 18.40653226 16.79011035 15.91267586 16.80481148 C12.42669926 16.82220907 8.94225905 16.80775216 5.4563446 16.78500366 C3.90778526 16.80254196 3.90778526 16.80254196 2.32794189 16.82043457 C-2.39327779 16.75767312 -4.69583679 16.68124862 -8.60067749 13.84101868 C-10.42085266 11.15390015 -10.42085266 11.15390015 -10.42085266 7.52890015 C-9.47541507 4.33804828 -9.05713819 3.05202572 -6.42085266 1.15390015 C-4.06171011 -0.02567113 -2.6314895 0.01809823 0 0 Z " fill="#f14f44" transform="translate(223.4208526611328,173.84609985351563)"/>
<path d="M0 0 C1.9375 1.0625 1.9375 1.0625 3 3 C4.38604037 9.11445936 4.38604037 9.11445936 2.91015625 12.5 C2.30042969 13.325 1.69070312 14.15 1.0625 15 C0.33546875 16.01320313 -0.3915625 17.02640625 -1.140625 18.0703125 C-1.57697266 18.66489258 -2.01332031 19.25947266 -2.46289062 19.87207031 C-4.32322847 22.44746813 -6.12254319 25.06130808 -7.921875 27.6796875 C-24.3065398 51.48449915 -24.3065398 51.48449915 -29 53 C-31.40234375 53.30078125 -31.40234375 53.30078125 -33.9375 53.3125 C-34.77152344 53.32925781 -35.60554688 53.34601563 -36.46484375 53.36328125 C-41.91570205 52.58218753 -45.47700271 48.8230247 -49.375 45.1875 C-52.53773068 42.23846734 -55.6913889 39.43736799 -59.125 36.8125 C-61.76882631 34.5744408 -62.01230982 33.9580018 -63.0625 30.375 C-62.97289973 25.53658537 -62.97289973 25.53658537 -61 23 C-58.43399525 21.00421853 -57.02197919 20.99920938 -53.7421875 21.1171875 C-49.26410653 22.17360326 -46.93036662 24.24665341 -43.8125 27.4375 C-40.7279213 30.49856221 -37.98922708 33.16665082 -34 35 C-33.6282666 34.46745605 -33.2565332 33.93491211 -32.87353516 33.38623047 C-29.20117434 28.12722871 -25.52290763 22.87240899 -21.83886719 17.62158203 C-20.6874432 15.98005378 -19.53690907 14.33790058 -18.38769531 12.69482422 C-17.01283172 10.73092861 -15.6324711 8.77104445 -14.25 6.8125 C-13.84475098 6.23161621 -13.43950195 5.65073242 -13.02197266 5.05224609 C-9.3233444 -0.16286763 -6.30399527 -0.68465522 0 0 Z " fill="#f14f44" transform="translate(182,355)"/>
<path d="M0 0 C5.15765766 0.64470721 5.15765766 0.64470721 7.5 3.4375 C8.66031166 6.36881367 8.96862043 7.43051892 8.5 10.4375 C6.97784818 13.73354414 4.94467213 16.61611017 2.83544922 19.56298828 C1.25265442 21.78468818 -0.29316886 24.0303532 -1.83984375 26.27734375 C-19.82272178 52.28316642 -19.82272178 52.28316642 -25.578125 54.08984375 C-31.60109872 54.88062987 -35.54598866 53.9950102 -40.5 50.4375 C-42.33346186 48.80192279 -44.0246387 47.09866598 -45.703125 45.3046875 C-48.20317738 42.70680698 -50.94190053 40.42718735 -53.703125 38.11328125 C-55.61503661 36.33021586 -57.11460272 34.65757763 -58.5 32.4375 C-58.38081199 29.04064182 -58.08128695 26.49749385 -56.4375 23.5 C-53.00323157 21.61669151 -50.18169395 21.383005 -46.5 22.4375 C-40.52487541 26.37356109 -35.50605166 31.35928904 -30.5 36.4375 C-24.33322485 28.73296627 -18.75750081 20.67321448 -13.19726562 12.52539062 C-12.51986328 11.54119141 -11.84246094 10.55699219 -11.14453125 9.54296875 C-10.53971924 8.65762451 -9.93490723 7.77228027 -9.31176758 6.86010742 C-4.61257174 0.57657147 -4.61257174 0.57657147 0 0 Z " fill="#f14f44" transform="translate(177.5,136.5625)"/>
<path d="M0 0 C1.9375 1.6875 1.9375 1.6875 3 4 C2.91225513 10.87042303 -0.32528912 14.98177265 -4.3125 20.375 C-5.59018147 22.14298516 -6.86751895 23.91121895 -8.14453125 25.6796875 C-8.78986816 26.56495117 -9.43520508 27.45021484 -10.10009766 28.36230469 C-11.9026291 30.86481687 -13.65393053 33.39416329 -15.38671875 35.9453125 C-15.91289795 36.71439941 -16.43907715 37.48348633 -16.98120117 38.27587891 C-17.96639997 39.71859889 -18.94486258 41.16595092 -19.9152832 42.61865234 C-23.2269255 47.40706811 -26.58486597 51.29198441 -32.5625 52.53125 C-33.366875 52.5209375 -34.17125 52.510625 -35 52.5 C-35.804375 52.5103125 -36.60875 52.520625 -37.4375 52.53125 C-43.17037407 51.34272733 -47.3371693 46.94422001 -51.5 43.0625 C-54.45550342 40.30832515 -57.35527538 37.68186567 -60.625 35.3125 C-63 33 -63 33 -64 29.4375 C-64 24.57142857 -64 24.57142857 -62 22 C-59.43399525 20.00421853 -58.02197919 19.99920938 -54.7421875 20.1171875 C-50.26410653 21.17360326 -47.93036662 23.24665341 -44.8125 26.4375 C-41.7279213 29.49856221 -38.98922708 32.16665082 -35 34 C-34.6282666 33.46745605 -34.2565332 32.93491211 -33.87353516 32.38623047 C-30.84208078 28.04503833 -27.80543398 23.7076061 -24.76171875 19.375 C-22.49089547 16.14029385 -20.2398116 12.8945752 -18.01953125 9.625 C-17.57851074 8.98449707 -17.13749023 8.34399414 -16.68310547 7.68408203 C-15.87428048 6.50936757 -15.07453902 5.32832753 -14.28564453 4.14013672 C-10.24670963 -1.67041783 -6.45716087 -3.08820737 0 0 Z " fill="#f14f44" transform="translate(183,248)"/>
<path d="M0 0 C1.12489334 -0.00960754 2.24978668 -0.01921509 3.4087677 -0.02911377 C5.23996407 -0.03548859 5.23996407 -0.03548859 7.1081543 -0.04199219 C8.98388374 -0.0505423 8.98388374 -0.0505423 10.89750671 -0.05926514 C13.54808188 -0.06872628 16.19854352 -0.07561722 18.84912109 -0.07910156 C22.23866025 -0.0845787 25.62779615 -0.10858956 29.01720905 -0.13707352 C32.25582684 -0.16022924 35.49446532 -0.1621519 38.7331543 -0.16699219 C39.94787918 -0.17933899 41.16260406 -0.19168579 42.41413879 -0.20440674 C43.54848862 -0.20140564 44.68283844 -0.19840454 45.8515625 -0.1953125 C46.84702591 -0.19895813 47.84248932 -0.20260376 48.86811829 -0.20635986 C52.10850156 0.22638841 53.99119963 1.24784022 56.61987305 3.16113281 C58.1657418 6.25287033 57.91346826 8.75542834 57.61987305 12.16113281 C55.52004015 14.96052698 54.32147435 16.03077105 50.84997559 16.67579651 C49.25590881 16.68509438 49.25590881 16.68509438 47.62963867 16.69458008 C46.42158569 16.71041641 45.21353271 16.72625275 43.96887207 16.74256897 C42.66776489 16.7376091 41.36665771 16.73264923 40.02612305 16.72753906 C38.67378308 16.73277571 37.32144677 16.73905235 35.96911621 16.74632263 C33.13784572 16.75672129 30.307078 16.75217343 27.47583008 16.73754883 C23.8504289 16.72035333 20.22661149 16.74386494 16.60138702 16.77903843 C13.80972832 16.80101538 11.01844854 16.7995707 8.22673035 16.79127312 C6.24140284 16.79005609 4.25609884 16.80998612 2.27087402 16.83021545 C1.06282104 16.81768234 -0.14523193 16.80514923 -1.38989258 16.79223633 C-2.98395935 16.79079369 -2.98395935 16.79079369 -4.61022949 16.7893219 C-7.38012695 16.16113281 -7.38012695 16.16113281 -9.75842285 13.84825134 C-11.38012695 11.16113281 -11.38012695 11.16113281 -11.31762695 7.53613281 C-10.42224038 4.31274115 -10.0290581 3.06836324 -7.38012695 1.16113281 C-4.79203408 -0.13291362 -2.89819207 0.01992682 0 0 Z " fill="#f14f44" transform="translate(224.380126953125,280.8388671875)"/>
</svg>
