<?xml version="1.0" encoding="UTF-8"?>
<svg version="1.1" xmlns="http://www.w3.org/2000/svg" width="512" height="512">
<path d="M0 0 C3.04079496 1.95203575 5.46782042 4.43694018 8 7 C8.90492187 7.90363281 9.80984375 8.80726562 10.7421875 9.73828125 C12.18659985 11.18146598 13.62740217 12.62744678 15.05786133 14.08447266 C17.40810885 16.46894908 19.75529329 18.68433296 22.4375 20.6875 C26.1740597 24.05951729 28.64823325 27.99296164 29.2421875 33.0703125 C29.25 35 29.25 35 29 38 C29.59393555 38.24911133 30.18787109 38.49822266 30.79980469 38.75488281 C33.32176506 40.18209075 34.46977991 41.61250652 36.203125 43.921875 C47.71457724 57.99337603 58.23931313 60.78705298 75.4609375 62.9296875 C101.5624502 66.17878377 118.62427593 82.25957986 136.25292969 100.23754883 C144.72938705 109.29936697 144.72938705 109.29936697 155 116 C160.36110924 111.19635124 165.69861965 106.36936533 171 101.5 C172.02207356 100.56373455 173.04420856 99.62753617 174.06640625 98.69140625 C175.89153531 97.01695362 177.71260886 95.33805576 179.52734375 93.65234375 C195.99529421 78.51891115 214.50530753 66.25859801 236.26757812 60.21630859 C244.12978321 58.01030063 248.71097419 55.28221391 254 49 C255.35112882 47.74464085 256.7263615 46.5147005 258.125 45.3125 C259.10919922 44.44818359 259.10919922 44.44818359 260.11328125 43.56640625 C262 42 262 42 263.73046875 40.83984375 C268.48390675 37.56525313 269.00675052 33.94838999 270.2421875 28.64453125 C271.96019226 22.64922597 276.96207227 19.03369715 281.5390625 15.140625 C285.31592944 11.85535027 288.95721397 8.42441085 292.60742188 4.99951172 C296.98836118 0.91822447 298.9751575 -0.32895972 305.09375 -0.20703125 C307 0 307 0 308.9375 1.0625 C310.71181202 4.29801016 311.12234499 6.26847771 311 10 C309.217208 13.18050093 306.6237185 15.49933033 304 18 C303.41395996 18.56299805 302.82791992 19.12599609 302.22412109 19.70605469 C298.91889845 22.87229185 295.5908035 26.01338052 292.23046875 29.12109375 C291.65707764 29.6514624 291.08368652 30.18183105 290.49291992 30.72827148 C289 32 289 32 287 33 C287.14915241 37.92202942 289.69228078 39.96082348 293.05859375 43.13671875 C294.88770963 44.89222836 296.5388273 46.70087338 298.1875 48.625 C301.3408385 52.28145543 304.59303522 55.8345401 307.875 59.375 C318.33616206 70.68098335 318.33616206 70.68098335 323 76 C323.76957031 76.86753906 324.53914063 77.73507813 325.33203125 78.62890625 C326.06808594 79.49386719 326.80414063 80.35882813 327.5625 81.25 C328.22378906 82.01828125 328.88507813 82.7865625 329.56640625 83.578125 C331.37206935 86.62856402 331.42102228 88.50882649 331 92 C328.62633542 95.21142855 327.06557732 96.71584605 323.1875 97.75 C316.20385715 96.10678992 311.53020707 89.65258357 307.046875 84.3671875 C304.43401563 81.34544555 301.71928269 78.42582107 299 75.5 C295.16015749 71.35906283 291.36382088 67.19263746 287.66796875 62.921875 C284.48104538 59.24982278 281.23488012 55.62978757 278 52 C274.993182 53.33999498 273.00237391 54.79845291 270.75 57.1875 C267.02295219 61.02627944 263.07781615 64.53957284 259 68 C258.12214844 68.83660156 257.24429687 69.67320313 256.33984375 70.53515625 C252.53809033 73.69070076 248.3372437 74.61672133 243.625 75.8125 C220.31706499 82.2744653 202.14560768 96.03897231 184.83325195 112.5078125 C179.11599276 117.94500447 173.36252268 123.31942238 167 128 C168.36522112 132.20413876 168.36522112 132.20413876 170.04296875 136.2890625 C172.5319076 143.33936275 172.05566128 151.74056485 168.9375 158.5 C166.35635294 162.98382118 163.1051184 165.93925681 159 169 C158.34 169.66 157.68 170.32 157 171 C161.35138656 175.44204044 165.73333266 179.85415035 170.3125 184.0625 C170.92738281 184.63097656 171.54226563 185.19945312 172.17578125 185.78515625 C174.18959691 187.36952589 174.18959691 187.36952589 178 187 C179.92485638 185.52139832 179.92485638 185.52139832 181.625 183.5625 C184.84542814 180.08190627 185.95112662 179.08458656 190.875 178.6875 C193.91807647 178.7372958 194.85994874 178.90896668 197.5 180.625 C199.55684151 183.88166572 199.80468484 185.19603531 199 189 C196.91564539 191.92142255 194.52873468 194.46043562 192 197 C191.14341797 197.86044922 191.14341797 197.86044922 190.26953125 198.73828125 C189.85058594 199.15464844 189.43164062 199.57101563 189 200 C190.81823178 204.095613 193.52454063 206.93470721 196.5390625 210.1953125 C198 212 198 212 198 214 C198.53109375 213.52949219 199.0621875 213.05898437 199.609375 212.57421875 C200.31578125 211.95160156 201.0221875 211.32898438 201.75 210.6875 C202.44609375 210.07261719 203.1421875 209.45773438 203.859375 208.82421875 C208.10441397 205.20663992 210.42226604 203.34619088 216.08984375 203.58984375 C218 204 218 204 220.5625 206.0625 C222.46143582 209.94293407 222.03134455 211.83461276 221 216 C218.77734375 218.84375 218.77734375 218.84375 215.9375 221.5 C215.44596436 221.96704346 214.95442871 222.43408691 214.44799805 222.9152832 C210.40578209 226.72632775 206.25485481 230.42787261 202 234 C202.99 235.65 203.98 237.3 205 239 C205.83917969 238.75830078 205.83917969 238.75830078 206.6953125 238.51171875 C212.88752048 237.13683867 219.15390231 237.53848518 225 240 C225.16242188 239.11828125 225.16242188 239.11828125 225.328125 238.21875 C227.33850421 231.57982331 234.54588205 226.428385 239.5 221.8125 C240.03334961 221.31363281 240.56669922 220.81476563 241.11621094 220.30078125 C251.26420431 211 251.26420431 211 256.75 211 C261.33561644 212.4109589 261.33561644 212.4109589 263 215 C264.22357475 218.23373327 264.16235107 219.59607499 262.86328125 222.828125 C260.79908127 226.34202517 258.35395646 228.80011324 255.3125 231.4375 C254.78156738 231.91413086 254.25063477 232.39076172 253.70361328 232.88183594 C251.34691524 234.98824623 248.96162563 237.03104781 246.50390625 239.01953125 C243.11911093 241.77084194 241.21104887 243.55445238 239.3125 247.5625 C238.9337175 251.72910749 239.67922931 253.55885726 242 257 C245.12779886 259.08519924 247.09045363 259.60904416 250.83203125 259.5 C255.19962511 258.49269907 257.91993585 255.07438137 261 252 C262.57653631 250.57577313 264.16024039 249.15945141 265.75 247.75 C270.03307682 243.8873479 274.28603393 239.99277049 278.53369141 236.09130859 C281.71665022 233.16993484 284.91319419 230.2646184 288.125 227.375 C288.929375 226.64925781 289.73375 225.92351562 290.5625 225.17578125 C292.21593164 223.69988153 293.88317535 222.2393383 295.5625 220.79296875 C310.64861524 207.6616093 318.33307073 192.41826648 322.2265625 172.96875 C326.68691992 151.33232896 326.68691992 151.33232896 337 144 C338.44830185 142.7204568 339.88667135 141.42953888 341.3125 140.125 C344.15704518 137.68434561 347.04604725 135.30777559 350 133 C348.63107063 129.90296672 347.07882641 127.88238392 344.625 125.5625 C336.13009526 117.24457244 336.13009526 117.24457244 336 111 C337.13779872 108.67268444 338.16840714 106.83159286 340 105 C344.80104983 104.51175764 346.97289735 104.32923909 351.0625 107 C354.63017502 110.42264758 357.81564766 114.2243697 361 118 C362.14515459 119.33391633 363.29093945 120.66729197 364.4375 122 C365.283125 122.99 366.12875 123.98 367 125 C371.10572871 122.88492763 373.93233674 120.17225974 377.10546875 116.90234375 C379.67592701 114.32128566 382.39123473 111.93922849 385.16015625 109.57421875 C386.65805942 108.29257336 388.1166321 106.96507269 389.5625 105.625 C392.81026529 103.45982314 395.10557184 103 399 103 C401.9375 104.4375 401.9375 104.4375 404 107 C404.51670058 110.25521362 404.75723735 111.93411221 404 115 C401.9375 117.5625 401.9375 117.5625 399 120 C397.88671988 121.11598226 396.78312589 122.24168056 395.6875 123.375 C391.9464101 127.1079923 388.04575384 130.60125496 384 134 C383.36191406 134.56203125 382.72382813 135.1240625 382.06640625 135.703125 C378.42946133 138.71805721 375.70122671 140.27396958 371 141 C362.29966642 142.36814406 356.97497854 148.80142087 351.10546875 154.93359375 C349 157 349 157 345.6875 159.125 C341.12365969 164.00724777 340.42692653 170.6299423 339 177 C333.06360548 202.9599913 321.7016285 221.51643337 301.25390625 239.03125 C298.32478811 241.58978647 295.4764465 244.23051997 292.625 246.875 C287.91719288 251.23726138 283.18876622 255.57227756 278.39453125 259.83984375 C276.74449825 261.32837271 275.1179819 262.84324807 273.51171875 264.37890625 C264.10980839 273.25442661 257.07458788 276.61284202 244.125 276.2734375 C241 276 241 276 239 275 C239.00888245 275.86808289 239.01776489 276.73616577 239.0269165 277.6305542 C239.10706476 285.81142973 239.16796554 293.9921734 239.20724869 302.17335129 C239.22812361 306.37940977 239.256439 310.58514385 239.30175781 314.79101562 C239.34521976 318.8499597 239.36913782 322.90859174 239.37950897 326.96775055 C239.3868998 328.51633873 239.40133252 330.06490983 239.42292023 331.61336517 C239.45196048 333.78265784 239.45595599 335.95066141 239.45410156 338.12011719 C239.46298401 339.35477722 239.47186646 340.58943726 239.48101807 341.86151123 C238.90883464 345.59482479 237.96053098 346.73538394 235 349 C231.98494674 350.08232681 230.42099685 350.10769687 227.3125 349.3125 C224.49973678 347.71606682 224.08580329 347.02290911 223 344 C222.81620033 341.27008523 222.74013738 338.64296002 222.76049805 335.91430664 C222.75848389 335.10245407 222.75646973 334.2906015 222.75439453 333.45414734 C222.75085309 331.69391788 222.75161111 329.93367568 222.75617027 328.17344856 C222.76176606 325.38659633 222.75260087 322.60015988 222.7389679 319.81333923 C222.70184758 311.8909214 222.68330937 303.96864495 222.69458008 296.04614258 C222.70043169 291.19783365 222.68216916 286.35011025 222.64869118 281.5019207 C222.64073757 279.65557936 222.64201365 277.80917421 222.65271568 275.96284676 C222.66704586 273.37961294 222.65077078 270.79822009 222.62768555 268.21508789 C222.64533714 267.07328568 222.64533714 267.07328568 222.66334534 265.90841675 C222.5942657 261.96394707 222.11660854 260.15194278 219.68733215 256.98655701 C217.07114677 254.6408574 217.07114677 254.6408574 213.375 255 C209.51779538 256.13295663 209.51779538 256.13295663 207 259 C205.9409402 262.1771794 205.86924506 264.44707331 205.8581543 267.78491211 C205.85111984 268.97301987 205.84408539 270.16112762 205.83683777 271.38523865 C205.83059135 273.31183067 205.83059135 273.31183067 205.82421875 275.27734375 C205.80696357 277.2909845 205.78968504 279.30462538 205.77101612 281.31825352 C205.72542799 286.28823131 205.68766939 291.25809585 205.67407227 296.22827148 C205.66594428 299.01668552 205.64739604 301.80464897 205.61714172 304.59291077 C205.58892493 307.22042311 205.57609136 309.84815388 205.58000183 312.47581482 C205.56351089 313.66707474 205.54701996 314.85833466 205.5300293 316.08569336 C205.52416306 317.13365585 205.51829681 318.18161835 205.51225281 319.26133728 C204.87300962 322.67893003 203.68928095 323.86641925 201 326 C198.09215119 326.70882303 196.057461 326.33971789 193 326 C190.32568511 324.18836733 190.04079641 323.12238923 189 320 C188.89648674 317.61437749 188.8540925 315.22597277 188.84228516 312.83813477 C188.83720444 312.11260406 188.83212372 311.38707336 188.82688904 310.63955688 C188.81619381 309.0648424 188.8075703 307.49011279 188.80076981 305.91537666 C188.78897535 303.42299085 188.76952206 300.93077789 188.74765015 298.4384613 C188.68604586 291.3525059 188.63195781 284.26656926 188.59863281 277.18041992 C188.57769773 272.84556193 188.54240657 268.5110209 188.49787521 264.17634392 C188.48370837 262.52457342 188.47499123 260.87274686 188.47182083 259.22091866 C188.46691659 256.91069439 188.44377339 254.60131298 188.41650391 252.29125977 C188.40841705 250.97682388 188.4003302 249.662388 188.39199829 248.30812073 C187.97956842 244.82757546 187.49158157 243.4150919 185 241 C181.34121638 239.80691838 179.70002308 239.67332256 176.1875 241.3125 C173.91084374 242.81578588 173.91084374 242.81578588 173 245 C172.88475379 246.99881589 172.83305986 249.00140903 172.81054688 251.00341797 C172.79382935 252.26588348 172.77711182 253.528349 172.7598877 254.82907104 C172.74986473 255.8454748 172.74986473 255.8454748 172.73963928 256.88241196 C172.71855919 259.01145937 172.69152993 261.14035834 172.66296387 263.26931763 C172.60323256 267.80448668 172.55126568 272.33972854 172.5 276.875 C172.44044189 282.09923697 172.37760582 287.32340474 172.30812073 292.54751968 C172.28193317 294.6254782 172.26087212 296.70344489 172.2401123 298.78146362 C172.19177822 302.52266765 172.11085197 306.26015396 172 310 C171.96704834 311.14809143 171.93409668 312.29618286 171.90014648 313.47906494 C171.8171228 315.07714996 171.8171228 315.07714996 171.73242188 316.70751953 C171.66661926 318.10117233 171.66661926 318.10117233 171.5994873 319.52297974 C170.82337885 322.72978054 169.57544377 323.98457528 167 326 C163.21993149 326.54000979 161.031612 326.69011936 157.81338501 324.53721619 C155.11868485 320.76689889 155.44309678 317.43427879 155.48583984 312.90454102 C155.47515221 311.52582825 155.47515221 311.52582825 155.46424866 310.1192627 C155.44494813 307.0805927 155.45325132 304.04261733 155.4609375 301.00390625 C155.45103336 298.89166749 155.4390932 296.77943737 155.42520142 294.66722107 C155.39280091 289.10424128 155.38244405 283.54145841 155.37835693 277.97839355 C155.36960965 269.07747133 155.33411556 260.17671125 155.2861824 251.27592278 C155.27359015 248.16659903 155.27435612 245.05747948 155.27645874 241.94813538 C155.26987775 240.04037316 155.26287136 238.13261234 155.25537109 236.22485352 C155.25949509 235.36079391 155.26361908 234.49673431 155.26786804 233.60649109 C155.23921834 229.34623507 155.17172705 225.79728361 153 222 C149.2794164 219.51961093 147.40203429 219.53662797 143 220 C140.62706717 221.37947072 140.62706717 221.37947072 139 224 C138.4120284 227.06090341 138.4671086 230.07847831 138.50170898 233.18725586 C138.49619019 234.11615128 138.49067139 235.04504669 138.48498535 236.00209045 C138.47566386 238.01767297 138.4755614 240.03331439 138.48357964 242.04890251 C138.49618988 245.23916472 138.48493775 248.42855923 138.46754456 251.61878967 C138.44081451 257.24096769 138.43524994 262.86293376 138.43664551 268.48516846 C138.43887205 277.48086582 138.42478894 286.4763007 138.38105965 295.47189522 C138.37121222 298.61453624 138.37994386 301.75676616 138.38975525 304.8993988 C138.38361106 306.82738515 138.37669933 308.75536926 138.36889648 310.68334961 C138.37661575 311.55675995 138.38433502 312.43017029 138.39228821 313.33004761 C138.35299251 318.03361351 138.0812747 321.19114707 135 325 C131.90826248 326.54586876 129.40570448 326.29359521 126 326 C123.80458069 324.46861267 123.80458069 324.46861267 122 322 C121.61228559 319.26199307 121.46545805 316.92492837 121.50170898 314.18969727 C121.49619019 313.40710541 121.49067139 312.62451355 121.48498535 311.81820679 C121.47567146 310.12184214 121.47555519 308.42540757 121.48357964 306.72903633 C121.49620473 304.04279279 121.48492489 301.35757755 121.46754456 298.67137146 C121.44082841 293.93694005 121.43524937 289.20276035 121.43664551 284.46826172 C121.43887291 276.89382144 121.42475148 269.31969297 121.38105965 261.74537468 C121.37122351 259.10128775 121.37993779 256.45769073 121.38975525 253.81361389 C121.38361014 252.18897176 121.3766981 250.56433229 121.36889648 248.93969727 C121.37661575 248.206548 121.38433502 247.47339874 121.39228821 246.71803284 C121.34452945 241.89347258 120.47178444 238.47178444 117 235 C111.3952291 234.78673597 111.3952291 234.78673597 106 236 C104.92613184 238.81322596 104.87526793 241.52246547 104.87542725 244.50950623 C104.87286423 245.40809357 104.87030121 246.30668091 104.86766052 247.23249817 C104.86976028 248.21079086 104.87186005 249.18908356 104.87402344 250.19702148 C104.8721553 251.23320618 104.87028717 252.26939087 104.86836243 253.3369751 C104.86435973 255.58666676 104.86228371 257.83636248 104.86190033 260.08605766 C104.85848578 264.86584651 104.83712772 269.64549921 104.81666946 274.42524052 C104.77862725 283.32591131 104.74738878 292.22643589 104.74951172 301.12719727 C104.7502976 307.3176391 104.72698978 313.50758162 104.6876297 319.69789314 C104.67715131 322.05778828 104.6756591 324.41774092 104.68328094 326.77764702 C104.69287541 330.07684507 104.67177135 333.3745233 104.64355469 336.67358398 C104.65375137 337.64985245 104.66394806 338.62612091 104.67445374 339.63197327 C104.60399826 344.22001145 104.49242356 346.33915243 101.68243408 350.11024475 C98.16411163 352.58887726 96.21699522 352.69005376 92 352 C89.81665039 350.41577148 89.81665039 350.41577148 88 348 C87.50170898 344.68774414 87.50170898 344.68774414 87.49609375 340.78515625 C87.4819619 339.74602333 87.4819619 339.74602333 87.46754456 338.68589783 C87.43893774 336.47779624 87.43581411 334.2707717 87.4375 332.0625 C87.43388481 329.85795617 87.42426579 327.65419522 87.39674377 325.44981384 C87.37230861 323.44722025 87.3700231 321.44439274 87.36889648 319.44165039 C86.90975126 315.15801685 85.67435746 312.36429127 82.3125 309.625 C78.79841787 308.67524807 75.33344246 308.54161892 72 310 C68.56882107 314.32142643 67.49908456 317.1960522 67.49829102 322.68530273 C67.48891006 323.99784531 67.47952911 325.31038788 67.46986389 326.66270447 C67.48035274 328.08634081 67.49172316 329.5099709 67.50390625 330.93359375 C67.50375098 332.41366141 67.50225742 333.89372947 67.49949646 335.37379456 C67.49811391 338.47651146 67.51063212 341.57876542 67.53344727 344.68139648 C67.56160795 348.61470794 67.55915418 352.54723793 67.54635715 356.48060513 C67.53931703 359.54116711 67.5472864 362.60155616 67.55961418 365.66209602 C67.56406434 367.10942986 67.56452329 368.55678274 67.56054878 370.00411797 C67.5346663 387.74512353 70.72290622 403.39718524 80.6875 418.3125 C81.111521 418.95590332 81.53554199 419.59930664 81.97241211 420.26220703 C84.09976858 423.42653603 86.25892355 426.34820894 88.87109375 429.12890625 C100.9423431 443.35757037 96 452.6490559 96 474 C132.3 474 168.6 474 206 474 C206 462.78 206 451.56 206 440 C208.56346956 433.53393499 210.49967119 428.76994056 213.88867188 423.06494141 C219.73608183 412.19996043 221.78887928 398.04955015 222.1953125 385.92578125 C222.2272168 385.03093018 222.25912109 384.1360791 222.29199219 383.21411133 C222.34626031 381.43970328 222.38156267 379.66458724 222.39550781 377.8894043 C222.50238543 373.83323905 222.70340529 371.50706039 224.7890625 367.94140625 C227.12249005 365.89244248 227.95340875 365.33634365 231 365.4375 C231.66 365.43621094 232.32 365.43492187 233 365.43359375 C236.12346598 366.31816908 237.1499869 367.29613471 239 370 C239.58416853 373.38196625 239.51827995 376.70162162 239.4375 380.125 C239.42356201 381.10621826 239.40962402 382.08743652 239.39526367 383.09838867 C239.01497606 398.39536491 237.00053777 417.28974671 228.8984375 430.6484375 C222.82579165 440.86766851 222.23126963 450.09529071 222.25 461.75 C222.24664642 462.51327606 222.24329285 463.27655212 222.23983765 464.06295776 C222.24093383 466.26743623 222.27650333 468.46804859 222.328125 470.671875 C222.3580957 471.9619043 222.38806641 473.25193359 222.41894531 474.58105469 C223.08693974 478.51155636 224.34025183 480.10411342 227 483 C229.15513889 487.86445635 229.33532156 492.33636327 229.3125 497.5625 C229.32861328 498.30435547 229.34472656 499.04621094 229.36132812 499.81054688 C229.36540503 504.38891405 228.85974804 507.22802854 226 511 C224.1496801 512.8503199 221.57527918 512.29140132 219.10546875 512.42578125 C217 512 217 512 213 508 C212.67 502.39 212.34 496.78 212 491 C171.74 491 131.48 491 90 491 C89.67 496.61 89.34 502.22 89 508 C85 512 85 512 81.5625 512.5625 C76.95141369 511.83443374 75.79291871 510.71760126 73 507 C72.29348539 503.71025644 72.34622941 500.53984428 72.4375 497.1875 C72.42654297 496.32318359 72.41558594 495.45886719 72.40429688 494.56835938 C72.46982724 488.77984394 73.38632201 483.68786933 77 479 C77.99 478.67 78.98 478.34 80 478 C81.19184073 452.87604696 81.19184073 452.87604696 69.41601562 431.60449219 C54.13242051 414.28659786 50.49829714 391.19583662 50.6015625 369.00390625 C50.59953344 367.43407558 50.59661516 365.86424584 50.59286499 364.29441833 C50.58848976 361.03806395 50.59472114 357.78195965 50.60888672 354.52563477 C50.62607659 350.37458719 50.61604557 346.22411762 50.59816933 342.07309055 C50.58728551 338.84467778 50.59079709 335.61640036 50.5985527 332.38798332 C50.60053685 330.85753241 50.59815911 329.32706875 50.59111404 327.79663277 C50.51949164 307.89719909 50.51949164 307.89719909 58 300.0625 C58.680625 299.33160156 59.36125 298.60070312 60.0625 297.84765625 C62 296 62 296 65 294 C62.50434749 291.47483195 60.00267549 288.95570627 57.5 286.4375 C56.80390625 285.73302734 56.1078125 285.02855469 55.390625 284.30273438 C51.3935473 280.28715169 47.30293173 276.46614635 43.01318359 272.76635742 C39.41399433 269.60844639 35.98238069 266.28726198 32.5625 262.9375 C31.48452148 261.9155957 31.48452148 261.9155957 30.38476562 260.87304688 C27.3139488 257.85442523 25.26552852 255.83283854 23.94140625 251.6796875 C24.02177139 248.00432174 25.4124072 245.5875928 28 243 C31.79876109 242.46684055 34.49616274 242.10213936 37.8515625 244.10546875 C40.01890619 245.97307342 42.00322895 247.94971415 44 250 C45.03640165 251.03911741 46.0742709 252.07677228 47.11328125 253.11328125 C48.777164 254.77331965 50.43721796 256.43582172 52.08081055 258.1159668 C54.88897015 260.97286557 57.75459361 263.68557075 60.796875 266.29296875 C66.6236098 271.32578303 71.91341281 276.90379619 77.28515625 282.41210938 C78.09339844 283.23130859 78.90164062 284.05050781 79.734375 284.89453125 C80.45850586 285.63550049 81.18263672 286.37646973 81.92871094 287.13989258 C83.88692425 288.89845307 85.59474459 289.96845032 88 291 C88.06499285 287.33151477 88.04011969 283.66872283 88 280 C88.01933594 278.97003906 88.03867188 277.94007813 88.05859375 276.87890625 C87.95092968 271.24448672 87.47977452 267.78514815 83.4375 263.6875 C81.98213567 262.43024132 80.50267795 261.20030983 79 260 C77.68394064 258.84780293 76.37136198 257.69161659 75.0625 256.53125 C74.40378906 255.96277344 73.74507812 255.39429688 73.06640625 254.80859375 C69.26849468 251.4845237 65.62432927 248.01126527 62 244.5 C61.22527344 243.77941406 60.45054687 243.05882812 59.65234375 242.31640625 C54.1574214 236.957161 54.1574214 236.957161 53.3671875 232.15234375 C54.20668004 227.97042721 55.55420803 226.4719812 59 224 C61.8125 223.25 61.8125 223.25 65 224 C71.24562783 228.11122749 76.38941165 234.31770588 81.60766602 239.64331055 C84.51162314 242.70131919 84.51162314 242.70131919 88 245 C87.9175 243.865625 87.835 242.73125 87.75 241.5625 C87.70207958 237.06596682 89.17938265 233.96818054 91.3203125 230.078125 C92.19525347 228.04106928 92.19525347 228.04106928 91.49609375 226.1015625 C88.91508624 222.47602192 85.53822291 219.57885054 82.25585938 216.59765625 C79.52431841 213.9958718 78.14488969 212.48751818 77.046875 208.79296875 C76.98836755 205.30689975 77.89175212 203.73291392 80 201 C83.26047629 199.36976186 85.37801035 199.5326465 89 200 C92.99959922 202.56703056 96.1777347 205.99253981 99.16796875 209.65625 C103.56483507 214.7822449 106.66392175 217.47842622 113.40820312 218.04541016 C116.62036822 218.16073679 119.78802763 218.13549263 123 218 C123.99 216.02 124.98 214.04 126 212 C125.45061768 211.45061768 124.90123535 210.90123535 124.33520508 210.33520508 C101 187 101 187 100.6875 183.6875 C101 180 101 180 102.6875 177.625 C105.38366117 175.73040026 106.68914403 175 110 175 C115.17425794 177.20686854 118.38859165 180.28298829 122.22265625 184.38671875 C122.6938942 184.89083282 123.16513214 185.3949469 123.65065002 185.91433716 C125.62191054 188.03093713 127.58731477 190.14927917 129.50170898 192.31762695 C134.86066393 198.3499871 138.94127528 202.57367253 147.46875 203.109375 C148.60892578 203.08198242 149.74910156 203.05458984 150.92382812 203.02636719 C156.48155875 202.9787295 160.02647647 205.12456412 163.96484375 208.8671875 C167.91711755 213.15083805 170.85873372 216.8215088 171.125 222.8125 C171.08375 223.534375 171.0425 224.25625 171 225 C171.845625 224.67 172.69125 224.34 173.5625 224 C177.20989216 222.93894046 180.22274664 222.84890987 184 223 C180.46201516 217.00292131 175.68677604 212.42701198 170.75 207.5625 C169.92886719 206.74201172 169.10773438 205.92152344 168.26171875 205.07617188 C164.59382363 201.43443448 160.90574283 197.86467395 156.984375 194.49609375 C151.36626161 189.66139662 146.26192194 184.30625456 141.06640625 179.02734375 C136.87363345 174.79379844 132.6233885 170.73070561 128.10742188 166.84521484 C123.77577392 163.05251382 119.63435007 159.06765163 115.5 155.0625 C114.12328125 153.77956055 114.12328125 153.77956055 112.71875 152.47070312 C105.41243828 145.34378745 105.41243828 145.34378745 105.27734375 140.53125 C106 137 106 137 108.0625 134.4375 C112.06984945 132.47645665 113.74493553 132.629725 118 134 C122.04619147 136.75759546 125.34480111 140.33835049 128.77734375 143.8046875 C129.25913086 144.2908252 129.74091797 144.77696289 130.23730469 145.27783203 C131.62993264 146.69156041 133.00865124 148.11894976 134.38671875 149.546875 C137.74006402 152.69470883 140.39184483 154.7989806 145 155.375 C148.39638127 154.95045234 150.2673656 154.02995698 153 152 C154.65653031 148.68693937 154.73381105 145.55518803 154 142 C152.11870546 138.89457546 149.5874561 136.52657478 147 134 C146.04622083 133.02665267 145.09452734 132.05125876 144.14453125 131.07421875 C139.94253916 126.78685285 135.72510985 122.59646102 131.16796875 118.68359375 C127.42453456 115.44094451 123.96109389 111.98669859 120.5065918 108.44042969 C102.98916311 90.46625532 86.04347912 80.75591347 61.08203125 77.11328125 C60.06415527 76.95811035 59.0462793 76.80293945 57.99755859 76.64306641 C56.00813513 76.34689087 54.01478984 76.07561426 52.01806641 75.83349609 C44.77591445 74.75997731 41.01293813 72.22898483 36 67 C34.71897993 65.7510662 33.43773191 64.50236617 32.15625 63.25390625 C30.93487924 62.02603884 29.71611255 60.79557549 28.5 59.5625 C27.86835938 58.92634766 27.23671875 58.29019531 26.5859375 57.63476562 C25.05494226 56.09217194 23.52712333 54.54642686 22 53 C18.16165754 54.58184202 15.73333152 57.02288989 12.82421875 59.9453125 C12.33597122 60.43401825 11.84772369 60.922724 11.34468079 61.42623901 C10.31277802 62.46115667 9.28330056 63.49849751 8.25610352 64.53808594 C6.70825108 66.10400669 5.1527365 67.66196358 3.59570312 69.21875 C-0.56672596 73.39647506 -4.70568532 77.57156995 -8.54296875 82.0546875 C-13.49924689 87.84285637 -19.03470617 93.09051794 -24.45703125 98.43652344 C-29.60737141 103.52092259 -34.65304955 108.63006576 -39.35986328 114.1328125 C-42.23383351 117.40463809 -45.3382327 120.44336812 -48.4375 123.5 C-49.07365234 124.13164063 -49.70980469 124.76328125 -50.36523438 125.4140625 C-51.90782806 126.94505774 -53.45357314 128.47287667 -55 130 C-51.10915412 134.74084336 -47.01760977 138.98949308 -42.4375 143.0625 C-35.74369165 149.02038088 -30.83134668 154.24829651 -28.1875 162.9375 C-21.06711513 184.42930388 -7.6974982 199.68944259 8.24047852 215.30664062 C8.74216553 215.79900711 9.24385254 216.2913736 9.76074219 216.79866028 C11.14879501 218.15812856 12.5411971 219.51315194 13.93383789 220.86791992 C16.61367709 223.63325559 16.95254544 224.4874907 17.3125 228.375 C17 232 17 232 15.4375 234.4375 C11.90550465 236.70159958 10.13858566 236.7587407 6 236 C2.99993218 233.99208059 0.52939818 231.56432084 -2 229 C-2.62261719 228.37867188 -3.24523437 227.75734375 -3.88671875 227.1171875 C-5.06904736 225.93229419 -6.24631857 224.74232845 -7.41796875 223.546875 C-9.08543509 221.85735778 -9.08543509 221.85735778 -11.5 220.0625 C-26.43127708 207.74419641 -36.05259086 189.24033558 -43.45703125 171.69140625 C-43.72128906 171.07394531 -43.98554687 170.45648438 -44.2578125 169.8203125 C-44.96539143 168.08488206 -45.573532 166.30989076 -46.17578125 164.53515625 C-48.70658946 159.63069922 -52.29425296 156.52147835 -56.375 152.875 C-57.88331933 151.49795078 -59.3911441 150.12035961 -60.8984375 148.7421875 C-61.61249756 148.10023438 -62.32655762 147.45828125 -63.06225586 146.796875 C-64.70444219 145.2740715 -66.20960279 143.7091231 -67.71484375 142.0546875 C-70.38804719 139.65108919 -71.65857615 139.43765326 -75.1875 139.25 C-82.43742844 138.18383405 -86.05814696 134.11887464 -91 129 C-92.03652332 127.96879559 -93.0756952 126.94024812 -94.1171875 125.9140625 C-97.1016049 122.9654056 -100.05223212 119.98529251 -103 117 C-104.39412109 115.71029297 -104.39412109 115.71029297 -105.81640625 114.39453125 C-108.03027662 111.96679863 -108.68874105 111.14367493 -108.625 107.9375 C-108 104 -108 104 -105.9375 101.4375 C-101.93015055 99.47645665 -100.25506447 99.629725 -96 101 C-91.62976769 103.89380247 -88.1330859 107.85452617 -84.51953125 111.61328125 C-83.89957275 112.25112549 -83.27961426 112.88896973 -82.64086914 113.54614258 C-81.38899275 114.83972124 -80.14959769 116.14550672 -78.92358398 117.46362305 C-78.34552002 118.06343994 -77.76745605 118.66325684 -77.171875 119.28125 C-76.3998877 120.10206055 -76.3998877 120.10206055 -75.61230469 120.93945312 C-74.05654536 122.18349074 -74.05654536 122.18349074 -72.09790039 121.94555664 C-69.22185988 120.64928003 -67.47871319 118.83228306 -65.26171875 116.58984375 C-64.35873047 115.68169922 -63.45574219 114.77355469 -62.52539062 113.83789062 C-62.0585083 113.3606958 -61.59162598 112.88350098 -61.1105957 112.3918457 C-59.70961732 110.960103 -58.29726694 109.53951651 -56.88476562 108.11914062 C-52.97262988 104.16251719 -49.1102163 100.19806881 -45.48828125 95.97265625 C-40.26871751 89.89694497 -34.43802863 84.39647235 -28.73828125 78.77734375 C-24.88605312 74.95846824 -21.06756154 71.16503006 -17.54296875 67.0390625 C-12.50309119 61.15200907 -6.85421469 55.82634176 -1.31665039 50.41259766 C0.1410594 48.98529174 1.59231055 47.55165501 3.04296875 46.1171875 C3.89914795 45.27784668 4.75532715 44.43850586 5.63745117 43.57373047 C10.17791077 38.91222076 10.17791077 38.91222076 12 33 C11.4337793 32.7532251 10.86755859 32.5064502 10.28417969 32.25219727 C5.6225685 29.69668168 2.0349965 25.61906602 -1.75 21.9375 C-2.63816406 21.11572266 -3.52632813 20.29394531 -4.44140625 19.44726562 C-11.57537159 12.4831566 -11.57537159 12.4831566 -11.67578125 7.0078125 C-11.42251759 4.21035765 -11.16240245 3.21437124 -9.4375 0.9375 C-5.86363702 -0.43706269 -3.82311652 -0.63718609 0 0 Z " fill="#f14f44" transform="translate(108,0)"/>
</svg>
